<?xml version="1.0" encoding="UTF-8"?>
<svg width="512px" height="216px" viewBox="0 0 512 216" version="1.1" xmlns="http://www.w3.org/2000/svg" xmlns:xlink="http://www.w3.org/1999/xlink">
    <title>featured-image</title>
    <g id="Page-1" stroke="none" stroke-width="1" fill="none" fill-rule="evenodd">
        <g id="featured-image" fill-rule="nonzero">
            <rect id="background" fill-opacity="0.5" fill="#FFFFFF" x="0" y="0" width="512" height="216"></rect>
            <g id="balance" transform="translate(204.000000, 5.000000)">
                <path d="M70.7302586,80 C71.8989126,86.4260573 74.3123328,93.6891625 72.549763,101.070829 C70.4300047,109.945783 68.8202585,118.292544 68.7171772,125.566913 C89.191395,131.612386 103.921829,148.454705 103.921829,168.28656 C103.921829,170.228605 104.044687,192.518844 103.982359,194.658887 C103.801368,200.913029 102.0364,207 90.990523,207 L12.9789761,207 C1.96486209,207 0.200494267,200.901766 0.0177048031,194.652366 C-0.0446234077,192.512323 0.0776357747,170.223863 0.0776357747,168.28656 C0.0776357747,148.498571 14.7439432,131.688266 35.1468433,125.608409 C35.0149952,118.323963 33.9500218,109.962382 31.4497016,101.070829 C29.3874769,93.7377727 32.100552,86.4260573 33.2692059,80 L70.7302586,80" id="Fill-149" fill="#F5A479"></path>
                <path d="M17,88 C11.1110549,86.6537735 5.57931732,78.5624072 4.18782614,68.7805265 C3.23319846,62.0727339 6.00124538,60.2450867 10.58769,60 C11.1994233,70.2288728 13.4683755,79.7574973 17,88" id="Fill-150" fill="#F49A6A"></path>
                <path d="M87,88 C92.8889452,86.6537735 98.4206826,78.5624072 99.8121738,68.7805265 C100.766802,62.0727339 97.9987546,60.2450867 93.4123099,60 C92.8005769,70.2288728 90.5316247,79.7574973 87,88" id="Fill-151" fill="#F49A6A"></path>
                <path d="M82.8789867,133 C81.2122282,152.91324 67.5875144,168.442962 51.0237301,168.442962 C34.6313667,168.442962 21.1169793,153.23443 19.221857,133.619397 C7.56700288,141.840703 3.07683817,154.416058 3.07683817,168.513093 C3.07683817,170.439059 2.95583504,192.597097 3.0175229,194.724619 C3.19843443,200.93745 1.97891282,207 12.8798701,207 L90.0899423,207 C101.022337,207 99.803408,200.948648 99.9825404,194.731101 C100.044228,192.60358 99.9226318,170.443774 99.9226318,168.513093 C99.9226318,154.057149 95.0486978,141.200679 82.8789867,133 Z" id="Fill-152" fill="#15868F"></path>
                <path d="M94.7815759,141.154666 C93.5408356,139.700445 92.2023479,138.313185 90.7733077,137 L84.0838662,137 C83.8206059,138.415112 83.4967781,139.801185 83.1147816,141.154666 L94.7815759,141.154666 Z M75.3746988,156.282371 C74.1399556,157.794074 72.8062646,159.183704 71.38682,160.436444 L100,160.436444 L100,156.282371 L75.3746988,156.282371 Z M33.6494929,160.436444 C32.2306476,159.183704 30.8975567,157.794074 29.6628134,156.282371 L6,156.282371 L6,160.436444 L33.6494929,160.436444 Z M21.9209314,141.154666 C21.5389346,139.801778 21.2151068,138.415112 20.9518469,137 L15.2260925,137 C13.7976523,138.313185 12.4591642,139.700445 11.2184242,141.154666 L21.9209314,141.154666 Z M6,199 L100,199 L100,194.845926 L6,194.845926 L6,199 Z M6,179.718222 L100,179.718222 L100,175.564148 L6,175.564148 L6,179.718222 Z" id="Fill-153" fill="#EDF6F5"></path>
                <path d="M102.92258,168.210683 C102.92258,157.538794 98.7119571,147.732916 91.6754558,140.000594 C89.1558483,147.612934 87.748548,156.095443 87.748548,165.040062 C87.748548,166.298094 87.7242127,187.70008 87.7052194,207 L90.1156141,207 C101.055281,207 102.803277,200.901099 102.982529,194.634698 C103.044258,192.490461 102.92258,170.156534 102.92258,168.210683 Z M11.3246073,140 C4.28751258,147.732322 0.0768892768,157.538794 0.0768892768,168.210683 C0.0768892768,170.151782 -0.0441943365,192.483928 0.0175345646,194.628165 C0.198566437,200.889813 1.94596918,207 12.8541782,207 L15.294844,207 C15.2764441,187.70008 15.2521087,166.298094 15.2521087,165.040062 C15.2521087,156.095443 13.8442149,147.612934 11.3246073,140 L11.3246073,140 Z" id="Fill-154" fill="#FFBE8E"></path>
                <path d="M84.8821486,33.1494185 C85.8818948,38.7131192 94,46.591905 94,52.6583677 C94,88.1932268 75.6441608,117 53.0002974,117 C35.8107299,117 21.0928726,100.39993 14.9986438,76.8587705 C13.0651667,69.3881443 12,61.2190059 12,52.6583677 C12,43.2088228 15.7515757,34.2352653 18.082929,26.1523998 C30.0251673,26.451677 82.6037263,20.4691071 84.8821486,33.1494185" id="Fill-155" fill="#FBBB91"></path>
                <path d="M27.9841009,126 C28.1094162,125.801531 23.4259869,102.011094 38.7935825,85.3808756 C45.2062408,78.4409188 54.7805585,73.3042672 60.9210013,67.2206152 C69.1168521,59.0998531 73.189295,50.7817989 77.2923172,41.233469 C80.1619738,56.7541428 84.964123,66.7553601 89.8574099,79.1276121 C95.090067,61.4008044 102.837422,20.8252611 75.2315122,16.5714161 C67.9440463,2.20151239 43.2803447,7.84405532 37.872606,9.40413219 C29.5052711,11.8175693 22.8251938,18.2039314 18.1777403,25.6156216 C10.6432415,35.4266145 8.04340172,54.078043 9.304348,72.8101546 C11.305793,102.529353 16.1409194,102.99932 27.9841009,126" id="Fill-156" fill="#2A2A2A"></path>
                <path d="M64.828934,53.3633765 C56.3503459,65.7319438 44.3642551,69.600686 34.2620316,81.7517808 C29.9418225,86.9479334 24.3447568,99.4519746 25.1355306,113 C21.4395228,98.5404941 27.644192,86.3097784 31.2174935,80.488542 C39.3291485,67.2738554 50.5967852,61.2488132 60.0771786,50.0608933 C65.6914349,43.4363183 70.8931135,36.8456119 78,30 C73.5499712,38.6073722 69.616257,46.3799137 64.828934,53.3633765 Z" id="Fill-157" fill="#15868F"></path>
                <path d="M40.7103235,13 C39.3783176,8.83055296 33.1470636,8.61881577 29,6.58258895 C36.4183045,5.15558192 47.0329359,6.3214042 55,10.3970276 C48.8107709,11.9241978 46.8995526,11.4721959 40.7103235,13" id="Fill-158" fill="#2A2A2A"></path>
                <path d="M47.9734969,11.2455518 C47.8531156,6.92614266 39.3196789,3.13980145 36,0 C43.3017517,0.839815837 55.666043,6.81641169 62,13 C55.8166681,12.6171887 54.156236,11.6289866 47.9734969,11.2455518" id="Fill-159" fill="#2A2A2A"></path>
                <path d="M39.1101471,20.7716181 C37.0543459,22.6483707 36.8895221,22.4918744 33.8939262,22.076557 C31.7949711,21.785835 29.7391699,21.2742123 27.6402149,20.9834901 C24.4941799,20.5477079 24.6703913,22.0223852 25.5694297,24.9609054 C26.4528849,27.8458558 27.2889906,30.7223793 28.0178111,33.60432 C28.867702,36.9629728 29.335202,36.4597768 31.5330513,34.127379 C33.195673,32.3631835 34.4789005,30.8397516 36.1079581,29.0442568 C38.6846022,26.202042 38.577317,26.7046361 42.5336853,27.2343161 C44.5067751,27.4985541 46.4810633,27.7621903 48.454153,28.0264285 C50.8156272,28.3430326 51.5624285,28.5302264 50.5764831,25.8204316 C49.5006337,22.8638541 48.3366787,19.4853384 47.26023,16.5287609 C46.8322877,15.3526305 45.7726211,14.2673884 44.2250763,15.6433526 C42.4983232,17.1782208 40.8476887,19.1855877 39.1101471,20.7716181 Z" id="Fill-160" fill="#EDF6F5"></path>
                <path d="M84,50.0709383 C80.0851402,52.267981 83.3021307,63.445309 83.7875758,71 C78.6754177,64.4561522 75.5569813,45.5140645 77.669234,37 C80.819634,42.5725048 80.8496,44.4978349 84,50.0709383" id="Fill-161" fill="#2A2A2A"></path>
            </g>
        </g>
    </g>
</svg>