<?xml version="1.0" encoding="UTF-8"?>
<svg width="512px" height="216px" viewBox="0 0 512 216" version="1.1" xmlns="http://www.w3.org/2000/svg" xmlns:xlink="http://www.w3.org/1999/xlink">
    <title>featured-image</title>
    <g id="Page-1" stroke="none" stroke-width="1" fill="none" fill-rule="evenodd">
        <g id="featured-image" fill-rule="nonzero">
            <g id="hipster" transform="translate(212.000000, 42.000000)">
                <path d="M66.9494434,106.598479 C66.9494434,90.2517329 51.9736826,77 33.4999225,77 C15.0261623,77 0.0500152084,90.2517329 0.0500152084,106.598479 C0.0500152084,107.869625 -0.0287476881,122.494025 0.0114059455,123.898196 C0.129164198,127.999081 1.2658209,132 8.3614313,132 L58.6187227,132 C65.7347962,132 66.8718389,128.006082 66.9888247,123.902086 C67.0285924,122.498303 66.9494434,107.872737 66.9494434,106.598479" id="Fill-254" fill="#D4461A"></path>
                <path d="M64,92.6975602 C62.382706,90.008628 60.3103791,87.5678569 57.8744116,85.4538191 L57.8744116,132 L59.5881113,132 C61.4325361,132 62.8736013,131.730446 64,131.260573 L64,92.6975602 Z M50.7813007,80.7492575 C48.8501113,79.7920084 46.7997646,79.0000704 44.6557122,78.3944486 L44.6557122,132 L50.7813007,132 L50.7813007,80.7492575 Z M37.5629871,77.1252476 C36.5542027,77.0439531 35.5330785,77 34.5000001,77 C33.4673072,77 32.446183,77.0439531 31.4373987,77.1252476 L31.4373987,132 L37.5629871,132 L37.5629871,77.1252476 Z M24.3442876,78.3944486 C22.2002353,78.9996819 20.1502745,79.7920084 18.2186994,80.7492575 L18.2186994,132 L24.3442876,132 L24.3442876,78.3944486 Z M11.1255882,85.4534303 C8.68962093,87.5674684 6.61806536,90.008628 5,92.697171 L5,131.262518 C6.12254248,131.731224 7.55782354,132 9.39222222,132 L11.1255882,132 L11.1255882,85.4534303 L11.1255882,85.4534303 Z" id="Fill-255" fill="#BA2C00"></path>
                <path d="M66.9493846,107.595661 C66.9493846,107.250047 66.9401184,106.906369 66.9269913,106.563467 L0.0728166877,106.563467 C0.0596895542,106.906369 0.0500372502,107.250047 0.0500372502,107.595661 C0.0500372502,108.040851 0.0403849458,110.133135 0.0295743654,112.718266 L66.9702338,112.718266 C66.9594231,110.133522 66.9493846,108.042014 66.9493846,107.595661 Z M65.6509567,99.4369195 C64.9451801,97.2725693 63.9652782,95.210896 62.7471575,93.281734 L4.25226436,93.281734 C3.03452967,95.210896 2.05462776,97.2725693 1.3484652,99.4369195 L65.6509567,99.4369195 Z M56.4584883,86.1551861 C53.2658923,83.4987614 49.4810309,81.3905932 45.296564,80 L21.7032441,80 C17.5187772,81.3905932 13.7335296,83.4987614 10.5413196,86.1551861 L56.4584883,86.1551861 Z M0.00409228277,119.844814 C-0.00208519184,122.338117 -0.00247128401,124.350971 0.0114280338,124.828321 C0.0230107988,125.220819 0.0438597755,125.612541 0.0782219786,126 L66.9227444,126 C66.9571067,125.61409 66.9775693,125.223531 66.9887659,124.832197 C67.0022794,124.354846 67.0022794,122.340442 66.9957158,119.844814 L0.00409228277,119.844814 L0.00409228277,119.844814 Z" id="Fill-256" fill="#BA2C00"></path>
                <path d="M63.8839281,92.8509446 L63.8796861,92.8440329 C63.824157,92.754953 63.7682417,92.6658734 63.7115556,92.5767932 L57.8744116,92.5767932 L57.8744116,98.6764705 L64,98.6764705 L64,93.0398553 L63.8839281,92.8509446 Z M57.8744116,111.838043 L64,111.838043 L64,105.73875 L57.8744116,105.73875 L57.8744116,111.838043 Z M57.8744116,125 L64,125 L64,118.900707 L57.8744116,118.900707 L57.8744116,125 Z M44.6557122,111.838043 L50.7813007,111.838043 L50.7813007,105.73875 L44.6557122,105.73875 L44.6557122,111.838043 Z M31.4373987,111.838043 L37.5629871,111.838043 L37.5629871,105.73875 L31.4373987,105.73875 L31.4373987,111.838043 Z M18.2186994,111.838043 L24.3442876,111.838043 L24.3442876,105.73875 L18.2186994,105.73875 L18.2186994,111.838043 Z M5,111.838043 L11.1255882,111.838043 L11.1255882,105.73875 L5,105.73875 L5,111.838043 Z M44.6557122,98.6764705 L50.7813007,98.6764705 L50.7813007,92.5767932 L44.6557122,92.5767932 L44.6557122,98.6764705 Z M31.4373987,98.6764705 L37.5629871,98.6764705 L37.5629871,92.5767932 L31.4373987,92.5767932 L31.4373987,98.6764705 Z M18.2186994,98.6764705 L24.3442876,98.6764705 L24.3442876,92.5767932 L18.2186994,92.5767932 L18.2186994,98.6764705 Z M11.1255882,92.5767932 L5.28805884,92.5767932 C5.19049672,92.7303795 5.09447712,92.8843498 5,93.0394714 L5,98.6764705 L11.1255882,98.6764705 L11.1255882,92.5767932 Z M45.381451,85.5145143 L50.7813007,85.5145143 L50.7813007,81.244816 L50.6000589,81.1565045 L50.5090523,81.1131165 L50.4180457,81.0697282 L50.3266536,81.0263396 L50.2352612,80.9833355 L50.1434838,80.9407157 L50.1400129,80.9391798 L50.051706,80.8980955 L49.9595424,80.8558595 L49.8673791,80.8140071 L49.7752156,80.772155 L49.7640328,80.7671628 L49.6826666,80.7306868 L49.5897321,80.6896025 L49.5245623,80.6604207 L49.4971831,80.6481343 L49.4042483,80.6074332 L49.3791831,80.5966827 L49.3109281,80.567117 L49.217608,80.5268005 L49.1528235,80.4987713 L49.1242874,80.4868682 L49.0305818,80.4469355 L48.9657973,80.4196745 L48.9364901,80.4073871 L48.8015228,80.350945 L48.778,80.3413454 L48.7486927,80.329059 L48.6542156,80.2902784 L48.5898169,80.264168 L48.5597384,80.2518816 L48.4259281,80.1977425 L48.4008629,80.187759 L48.3703987,80.1754723 L48.2751503,80.1374598 L48.2115228,80.1121182 L48.1802874,80.100215 L48.0850391,80.0625863 L48.0214116,80.0380125 L47.9894053,80.0257255 L47.9230785,80 L47.9188368,80.0975275 C47.835157,81.9540007 46.9000262,83.8688373 45.381451,85.5145143 Z M21.0695948,80.0030718 L20.9801308,80.0376287 L20.9785882,80.0380125 L20.9149608,80.0625863 C20.756085,80.1247885 20.5979804,80.187759 20.4402615,80.2514977 L20.410183,80.264168 L20.3920588,80.2714639 L20.2516928,80.329059 L20.222,80.3413454 L20.2042615,80.3486403 L20.0635098,80.4073871 L20.0342027,80.4196745 L19.9698039,80.4469355 L19.8760981,80.4864843 L19.8471765,80.4987713 L19.7823922,80.5264166 L19.6890719,80.5667328 L19.6609216,80.5790202 L19.5961373,80.6074332 L19.5032027,80.6481343 L19.4754379,80.6604207 L19.410268,80.6892186 L19.3173333,80.7306868 L19.2251699,80.772155 L19.1326209,80.8136232 L19.0477843,80.8524038 L19.0404576,80.8558595 L18.9486798,80.8980955 L18.8565164,80.9407157 L18.7651242,80.9833355 L18.6737321,81.0259557 L18.6733464,81.0263396 L18.5823399,81.0693443 L18.5005882,81.1085089 L18.4759085,81.1200275 C18.3903006,81.1614957 18.3039216,81.2029639 18.2186994,81.244816 L18.2186994,85.5145143 L24.0350197,85.5145143 C22.2796732,83.8381203 21.1544314,81.8979418 21.0726798,80.0714178 L21.0695948,80.0030718 Z M5,125 L11.1255882,125 L11.1255882,118.900707 L5,118.900707 L5,125 Z M18.2186994,125 L24.3442876,125 L24.3442876,118.900707 L18.2186994,118.900707 L18.2186994,125 Z M31.4373987,125 L37.5629871,125 L37.5629871,118.900707 L31.4373987,118.900707 L31.4373987,125 Z M44.6557122,125 L50.7813007,125 L50.7813007,118.900707 L44.6557122,118.900707 L44.6557122,125 Z" id="Fill-257" fill="#992F15"></path>
                <path d="M8.08990191,88.5384486 C12.8520625,104.624772 14.5368382,114.842892 15.2067399,132 L20.1735712,132 C20.353959,119.059248 16.6163085,95.2732579 12.3567669,85.9040892 C11.6583424,84.3316873 10.8157619,85.1338156 9.78200105,85.8883536 C8.85231007,86.5672848 7.66167357,87.0431885 8.08990191,88.5384486 Z M58.8995153,88.5384486 C54.136969,104.624772 52.4525787,114.842892 51.7822917,132 L46.815846,132 C46.635458,119.059248 50.3727229,95.2732579 54.6322646,85.9040892 C55.3310746,84.3316873 56.3420941,85.1338156 57.375855,85.8883536 C58.3055459,86.5672848 59.3277434,87.0431885 58.8995153,88.5384486 L58.8995153,88.5384486 Z" id="Fill-258" fill="#3D3D3D"></path>
                <path d="M17.6213992,32.6256744 C18.0263836,34.5062625 18.2521441,36.5932471 18.2521441,38.7914285 C18.2521441,47.0574327 15.0618822,53.7577108 11.1258798,53.7577108 C7.19064649,53.7577108 4,47.0574327 4,38.7914285 C4,29.0989863 10.4493673,32.6256744 17.6213992,32.6256744 Z M34.5245952,73.8082142 C42.3308333,73.8082142 48.658667,77.433223 48.658667,81.9044974 C48.658667,86.375381 42.3308333,90 34.5245952,90 C26.7187416,90 20.3905235,86.375381 20.3905235,81.9044974 C20.3905235,77.433223 26.7187416,73.8082142 34.5245952,73.8082142 Z M50.3786007,32.6256744 C49.9736165,34.5062625 49.7478558,36.5932471 49.7478558,38.7914285 C49.7478558,47.0574327 52.9381179,53.7577108 56.8741204,53.7577108 C60.8093537,53.7577108 64,47.0574327 64,38.7914285 C64,29.0989863 57.5506326,32.6256744 50.3786007,32.6256744 L50.3786007,32.6256744 Z" id="Fill-259" fill="#F49A6A"></path>
                <path d="M56.65181,13 C58.160069,18.2966568 59,24.176979 59,30.3692134 C59,34.9574401 58.5552177,39.3745046 57.7237515,43.5092888 C56.2151078,51.0131133 54.5210098,59.1056719 50.8130784,64.0919764 C41.7104281,76.3306261 23.251186,75.7282459 14.2905121,63.7009166 C10.6610717,58.8292399 8.86924473,51.3336033 7.33559168,44.0383699 C6.43448392,39.751918 7.63339582,35.2510272 7.63339582,30.4666859 C7.63339582,24.2744515 6.79038686,18.2966568 8.29864575,13 L56.65181,13" id="Fill-260" fill="#FAB385"></path>
                <path d="M32.5979345,39.3290546 C32.3196092,39.1367986 31.9807116,38.3301668 31.6410474,38.2004729 C31.0912973,37.9909948 29.9799127,38.0461762 29.3301035,38.0461762 C23.8862742,38.0461762 18.4420616,38.0461762 12.9982323,38.0461762 C11.5859036,38.0461762 10.7969318,38.438069 11.0453544,39.9240994 C11.5406662,42.888779 12.0363613,45.8534589 12.5316731,48.8181385 C12.7390754,50.059192 13.3708662,50.3372077 14.462699,50.4127744 C18.8886856,50.7199622 23.3146721,50.6893842 27.7406587,50.996572 C28.5859857,51.0552683 29.3826249,50.3551328 29.8081637,49.28595 C30.6113202,47.2681401 31.4144768,45.5877448 32.2172498,43.5699348 C32.720229,42.3067388 32.6707745,41.8789955 33.5,41.7925328 C34.3280755,41.7060705 34.2797711,42.3067388 34.7823668,43.5699348 C35.5855233,45.5877448 36.3886798,47.2681401 37.1918363,49.28595 C37.6173751,50.3551328 38.4140143,51.0552683 39.2593414,50.996572 C43.6853279,50.6893842 48.1113144,50.7199622 52.5373009,50.4127744 C53.6291338,50.3372077 54.2609248,50.059192 54.468327,48.8181385 C54.9636388,45.8534589 55.4593337,42.888779 55.9546456,39.9240994 C56.2030683,38.438069 55.4140965,38.0461762 54.0017677,38.0461762 C48.9646923,38.0461762 43.9276166,38.0479335 38.8905409,38.0461762 C38.7111245,38.0461762 37.649578,38.0057566 36.7160764,38.0001332 C35.8646154,37.994861 35.6974669,38.1470491 35.5241844,38.2967769 C35.2335912,38.5473776 34.9556492,39.2903926 34.3395766,39.4942472 C34.0002956,39.606719 32.8835439,39.5262314 32.5979345,39.3290546" id="Fill-261" fill="#6E4229"></path>
                <path d="M18,81.7820874 C18.1501706,80.7178642 18.5419723,79.6708067 18.9417616,78.563472 C19.1742067,77.9203874 19.2429017,77.9295681 19.4314138,78.0952295 C19.6147339,78.2561 19.9186696,78.5602776 20.1618982,78.840106 C23.5259604,82.7109874 29.3806187,86.9367429 34.5,89.2104909 C39.6193811,86.9367429 45.4740395,82.7109874 48.8385011,78.840106 C49.0817297,78.5602776 49.3856655,78.2561 49.5689855,78.0952295 C49.7574976,77.9295681 49.8261929,77.9203874 50.0582385,78.563472 C50.458427,79.6708067 50.8502288,80.7178642 51,81.7820874 C47.8464163,89.7453969 44.2874517,93.5492155 40.9038197,97.1498502 C39.740796,98.3877176 39.2519426,98.3466022 38.7958392,96.5430909 C38.0186261,93.4717741 36.5520659,91.6331355 34.5,90.1833015 C32.4483335,91.6331355 30.981374,93.4717741 30.2045603,96.5430909 C29.7480575,98.3466022 29.2596035,98.3877176 28.0961804,97.1498502 C24.7129475,93.5492155 21.153983,89.7453969 18,81.7820874" id="Fill-262" fill="#D4461A"></path>
                <path d="M40.4687825,90.9802186 C39.1181542,91.4673359 37.6995678,92.2546345 36.3311147,92.7696752 C34.7112523,93.3789593 34.6540632,93.2447693 33.0368003,92.2569614 C31.9030452,91.5646814 30.8469038,91.2369635 29.7135201,90.5446835 C28.0149299,89.5076207 27.7679769,89.9443193 27.590468,91.9160572 C27.4159299,93.8525021 27.3557698,95.3844386 27.0943341,97.2805486 C26.789078,99.4908031 27.17529,99.3065831 28.9834308,98.4611093 C30.3515126,97.8215745 31.3062733,97.6195138 32.661729,96.9528307 C34.807434,95.8979279 34.6276968,96.1705738 36.7682028,97.4639931 C37.8354848,98.1093458 38.9035097,98.7543103 39.971163,99.3996624 C41.2486335,100.171836 41.6322459,100.467752 41.7065177,98.6108124 C41.7871022,96.5840024 41.9170775,94.2845472 41.9980335,92.2577372 C42.0299702,91.4518221 41.6794087,90.54352 40.4687825,90.9802186" id="Fill-263" fill="#2A2A2A"></path>
                <path d="M20.124317,38.059654 C23.1043264,38.059654 26.6816703,37.943471 28.6496603,38.035388 C29.9509402,38.0964206 30.0802843,38.2357666 30.546315,38.6060076 C30.765416,38.7799143 30.7450346,39.2589846 30.7560092,39.50716 C30.8269525,41.1061453 22.7844937,43 16.9397087,43 C11.0953155,43 11.0114378,40.9682703 11.0114378,39.369285 C11.0114378,38.711528 10.8323159,38.3041526 11.8917616,38.1339226 C13.4078311,37.890527 16.6919952,38.059654 20.124317,38.059654 Z M40.3035627,38.0313436 C41.8733297,38.0313436 48.8539911,37.971046 49.8899197,38.0184753 C50.5746594,38.0500946 50.6444267,38.124731 50.8890049,38.319227 C51.0038467,38.410041 50.9940478,38.6644666 50.999908,38.7938856 C51.0355946,39.6358436 40.6759169,40.8406896 37.5971356,40.8406896 C36.2625398,40.8406896 35.8874422,40.715315 35.668733,40.3752226 C35.4535515,40.0391746 35.1395979,38.203412 35.9670084,38.070684 C36.7658059,37.942368 38.4954893,38.0313436 40.3035627,38.0313436 L40.3035627,38.0313436 Z" id="Fill-264" fill="#835B3E"></path>
                <path d="M5.40141046,21.4921506 C6.78483406,23.660645 9.46323791,26.7866667 12.7619038,28.5006091 C22.4736764,33.5467617 44.8270518,24.6084096 53.4535591,18.8702756 C53.894231,19.8445946 53.9494598,27.3021381 58.4867182,38.1879568 C58.3546328,39.4731207 58.341115,42.6362406 57.4709719,46.4835315 C55.9751597,53.0948429 51.8480618,65.2388804 46.5213789,69.3892061 C44.8475211,70.6935049 36.4855715,71.5881601 35.5822138,68.3805222 C35.1492663,66.8442615 30.9341112,66.8442615 30.5011637,68.3805222 C29.5978058,71.5881601 21.235856,70.6935049 19.5619984,69.3892061 C14.2353155,65.2388804 10.1078315,53.0948429 8.61240541,46.4835315 C7.55919596,41.8271065 7.76118661,38.1723363 7.48813227,37.6369492 C6.9014711,36.4857298 7.01965301,42.5456424 7.74226205,47.4371536 C8.78581606,54.5002833 11.3742317,64.5906361 14.8015073,72.5304577 C16.1254537,75.5975126 17.9854671,78.1779938 19.3194552,80.3859297 C20.0555817,81.603926 23.3700824,82.4083739 27.4635795,82.7633456 C29.296944,82.9218924 31.2222279,83 33.0721997,83 C39.3964768,82.9972603 45.7126437,82.1256451 46.763922,80.3859297 C48.0975237,78.1779938 49.9579236,75.5975126 51.2818699,72.5304577 C54.7091453,64.5906361 57.2975611,54.5002833 58.341115,47.4371536 C59.0115851,42.8994434 59.5951566,36.7586954 59.852376,32.1913062 C60.3393938,23.5497406 59.6306883,16.851346 57.587995,12.8787016 C56.1655639,1.34073347 31.8451933,-6.03363162 16.3544794,6.63446853 C14.7250367,7.96727454 14.4017744,8.04225219 12.1393245,7.88761076 C9.28789612,7.69274696 7.40895819,6.48021761 6.02321727,6.80394927 C5.10788676,7.01755751 4.44012032,7.67322155 3.98554476,8.77016026 C2.18269125,13.122379 2.96941204,17.6788338 5.40141046,21.4921506" id="Fill-265" fill="#412319"></path>
                <path d="M6.32889769,17.0506758 C7.26549975,21.498272 12.0278766,26.1302863 17.0873001,27.3461372 C23.8531039,28.9716349 28.8662944,27.3268868 35.436379,25.0360976 C38.3070583,24.0350805 45.5201656,19.92629 50.4424315,16.3938545 C54.2073329,13.6918783 56.855324,14.1669764 53.3797635,10.9052006 C51.5674327,9.20462638 46.6274445,8.54703512 40.0396374,9.32359341 C33.8613771,10.0516409 27.2489125,13.9190321 21.1916283,15.4047726 C17.8998438,16.2121315 13.5920907,14.3024988 10.9279182,14.0580196 C6.40094399,13.6429824 5.36763805,12.4895027 6.32889769,17.0506758" id="Fill-266" fill="#522D21"></path>
                <path d="M29,81 C25.23525,77.4705886 21.76475,74.5294114 18,71 C18.7240357,74.3949021 20.1630715,78.9298034 23.7899285,79.98549 C25.6245715,80.5192159 27.1649643,80.4658821 29,81" id="Fill-267" fill="#522D21"></path>
                <path d="M31.7460781,58.0274315 C31.1268258,58.1044459 30.5349222,58.2905639 29.9031677,58.5102812 C26.2947046,59.7640289 24.7850574,60.2804779 21,59.3234616 C21.1734687,60.9562406 24.3377111,62.341366 25.9188556,62.646403 C28.8701689,63.2157047 31.732013,63.1677597 34.1293203,61.9815883 C36.643836,63.2255204 40.1225882,63.0473304 43.3485603,62.1216487 C44.8468776,61.691652 46.5022539,60.7531343 47,59.2234186 C45.1094249,59.5567699 44.4233636,59.7285419 42.9785717,59.5061819 C41.3419486,59.2543752 39.7963575,59.0104966 38.3558635,58.5102812 C37.6295605,58.2577195 36.955611,58.0493279 36.2332152,58.0002502 C36.0144256,57.9851492 35.0861334,58.6586469 34.0800927,58.6639322 C33.0361543,58.6688399 31.9129051,58.0066679 31.7460781,58.0274315" id="Fill-268" fill="#412319"></path>
            </g>
        </g>
    </g>
</svg>