<?xml version="1.0" encoding="UTF-8"?>
<svg width="987px" height="586px" viewBox="0 0 987 586" version="1.1" xmlns="http://www.w3.org/2000/svg" xmlns:xlink="http://www.w3.org/1999/xlink">
    <title>Landing</title>
    <defs>
        <radialGradient cx="49.999%" cy="49.9995%" fx="49.999%" fy="49.9995%" r="176.094617%" gradientTransform="translate(0.499990,0.499995),scale(0.394044,1.000000),rotate(180.000000),translate(-0.499990,-0.499995)" id="radialGradient-1">
            <stop stop-color="#DAEFF3" offset="0%"></stop>
            <stop stop-color="#6EC1D4" offset="100%"></stop>
        </radialGradient>
    </defs>
    <g id="Page-1" stroke="none" stroke-width="1" fill="none" fill-rule="evenodd">
        <g id="Landing" transform="translate(0.262750, 0.577601)" fill-rule="nonzero">
            <polygon id="BluSky" fill="url(#radialGradient-1)" points="53.8364672 535.422399 926.836467 533.126581 907.956191 191.422399 66.8464892 191.422399"></polygon>
            <g id="Group">
                <path d="M920.83725,278.477399 L796.44725,278.477399 C796.44725,278.477399 824.29225,276.304899 858.64225,276.304899 C892.98975,276.304899 920.83725,278.477399 920.83725,278.477399" id="Fill-9" fill="#A6D4D1"></path>
                <path d="M796.44725,278.477399 C796.44725,278.477399 824.29225,279.927399 858.64225,279.927399 C892.98725,279.927399 920.83725,278.477399 920.83725,278.477399 L796.44725,278.477399 Z" id="Fill-10" fill="#DEF0EE"></path>
                <path d="M803.42975,271.654899 C793.86475,270.032399 788.91475,260.732399 792.39725,250.889899 C795.88975,241.042399 806.59975,234.372399 816.30475,235.997399 C817.03975,236.122399 817.73475,236.304899 818.41725,236.514899 C818.46475,236.369899 818.47475,236.229899 818.52725,236.089899 C820.32225,231.162399 825.72225,227.827399 830.58225,228.642399 C832.22975,228.914899 833.57225,229.659899 834.59725,230.682399 C842.33975,221.874899 854.25975,216.812399 865.23975,218.644899 C880.11725,221.129899 887.37225,235.357399 881.49225,250.422399 C880.80975,252.179899 879.96725,253.867399 879.00475,255.484899 C881.84475,253.987399 885.01475,253.327399 888.01475,253.834899 C894.68725,254.962399 897.88725,261.444899 895.17225,268.307399 C894.51975,269.959899 893.57975,271.479899 892.44725,272.824899 C893.62975,272.442399 894.84475,272.287399 896.02475,272.487399 C899.04475,273.004899 900.78225,275.494899 900.52725,278.477399 L843.47475,278.477399 C825.22975,275.364899 807.67725,272.379899 803.42975,271.654899" id="Fill-11" fill="#A6D4D1"></path>
                <path d="M802.10975,271.654899 C792.26475,270.032399 785.60225,260.732399 787.22225,250.889899 C788.84975,241.042399 798.14225,234.372399 807.98975,235.997399 C808.73975,236.122399 809.45975,236.304899 810.16725,236.514899 C810.18725,236.369899 810.17225,236.229899 810.19475,236.089899 C811.00725,231.162399 815.65975,227.827399 820.58225,228.642399 C822.25225,228.914899 823.71225,229.659899 824.92225,230.682399 C830.74975,221.874899 841.37475,216.812399 852.47475,218.644899 C867.53975,221.129899 877.73975,235.357399 875.25225,250.422399 C874.96225,252.179899 874.49975,253.867399 873.90475,255.484899 C876.38225,253.987399 879.38225,253.327399 882.46225,253.834899 C889.32475,254.962399 893.97225,261.444899 892.83725,268.307399 C892.56725,269.959899 891.97475,271.479899 891.15475,272.824899 C892.24225,272.442399 893.42475,272.287399 894.64475,272.487399 C897.77975,273.004899 900.08975,275.494899 900.52725,278.477399 L843.47475,278.477399 C824.59975,275.364899 806.48975,272.379899 802.10975,271.654899" id="Fill-12" fill="#FFFFFE"></path>
                <path d="M520.84475,262.122399 L393.00725,262.122399 C393.00725,262.122399 421.62225,259.889899 456.92475,259.889899 C492.22475,259.889899 520.84475,262.122399 520.84475,262.122399" id="Fill-13" fill="#A6D4D1"></path>
                <path d="M520.84475,262.122399 L393.00725,262.122399 C393.00725,262.122399 421.62225,263.609899 456.92475,263.609899 C492.22225,263.609899 520.84475,262.122399 520.84475,262.122399" id="Fill-14" fill="#DEF0EE"></path>
                <path d="M400.17975,255.109899 C390.34975,253.439899 385.26475,243.882399 388.84225,233.764899 C392.43225,223.644899 403.44225,216.792399 413.41225,218.462399 C414.16975,218.592399 414.88725,218.779899 415.58475,218.994899 C415.63475,218.847399 415.64475,218.702399 415.69725,218.557399 C417.54225,213.494899 423.09225,210.067399 428.08725,210.904899 C429.78225,211.187399 431.16225,211.949899 432.21475,212.999899 C440.16975,203.947399 452.42225,198.747399 463.70475,200.627399 C478.99975,203.182399 486.45225,217.804899 480.40975,233.287399 C479.70725,235.094899 478.83975,236.829899 477.85475,238.492399 C480.76975,236.949899 484.02975,236.272399 487.11225,236.792399 C493.96975,237.954899 497.25725,244.614899 494.46725,251.669899 C493.79975,253.364899 492.82975,254.927399 491.66725,256.309899 C492.87975,255.917399 494.13225,255.757399 495.34475,255.967399 C498.44975,256.497399 500.23225,259.054899 499.97225,262.122399 L441.33725,262.122399 C422.58725,258.922399 404.54975,255.852399 400.17975,255.109899" id="Fill-15" fill="#A6D4D1"></path>
                <path d="M398.82475,255.109899 C388.70725,253.439899 381.85725,243.882399 383.52725,233.764899 C385.19725,223.644899 394.75225,216.792399 404.86975,218.462399 C405.63975,218.592399 406.37975,218.779899 407.10725,218.994899 C407.12725,218.847399 407.10975,218.702399 407.13475,218.557399 C407.96975,213.494899 412.74975,210.067399 417.80975,210.904899 C419.52475,211.187399 421.02725,211.949899 422.27225,212.999899 C428.26225,203.947399 439.17975,198.747399 450.58725,200.627399 C466.06975,203.182399 476.55225,217.804899 473.99725,233.287399 C473.69975,235.094899 473.22475,236.829899 472.61225,238.492399 C475.15725,236.949899 478.23975,236.272399 481.40725,236.792399 C488.45975,237.954899 493.23225,244.614899 492.06975,251.669899 C491.78975,253.364899 491.18225,254.927399 490.33975,256.309899 C491.45975,255.917399 492.66975,255.757399 493.92725,255.967399 C497.14475,256.497399 499.52225,259.054899 499.97225,262.122399 L441.33725,262.122399 C421.93975,258.922399 403.32725,255.852399 398.82475,255.109899" id="Fill-16" fill="#FFFFFE"></path>
                <path d="M199.86325,271.152399 L76.94575,271.152399 C76.94575,271.152399 104.46175,268.862399 138.40575,268.862399 C172.34625,268.862399 199.86325,271.152399 199.86325,271.152399" id="Fill-21" fill="#A6D4D1"></path>
                <path d="M199.86325,271.152399 L76.94575,271.152399 C76.94575,271.152399 104.46175,272.682399 138.40575,272.682399 C172.34625,272.682399 199.86325,271.152399 199.86325,271.152399" id="Fill-22" fill="#DEF0EE"></path>
                <path d="M99.6045,260.384899 C99.27,250.119899 107.478,240.514899 117.937,238.924899 C118.73175,238.804899 119.51175,238.752399 120.282,238.729899 C120.2735,238.582399 120.227,238.447399 120.22225,238.299899 C120.0575,233.167399 124.16275,228.362399 129.39225,227.567399 C131.167,227.297399 132.8235,227.557399 134.27375,228.179899 C138.47775,217.574899 148.379,209.122399 160.166,207.337399 C176.1695,204.907399 189.55575,215.674899 190.061,231.379899 C190.12225,233.212399 189.98775,235.034899 189.70475,236.824899 C191.9495,234.537399 194.8975,232.912399 198.17025,232.414899 C205.46025,231.307399 211.55525,236.209899 211.78725,243.364899 C211.84325,245.087399 211.54675,246.782399 210.97425,248.379899 C212.019,247.647399 213.1995,247.112399 214.49475,246.917399 C218.617,246.289899 222.0605,249.064899 222.1925,253.107399 C222.323,257.154899 219.09175,260.937399 214.97075,261.559899 C212.356,261.954899 178.67325,267.067399 151.74325,271.152399 L103.95025,271.152399 C101.3625,268.384899 99.74125,264.674899 99.6045,260.384899" id="Fill-23" fill="#A6D4D1"></path>
                <path d="M98.28625,260.384899 C96.69925,250.119899 103.7305,240.514899 113.999,238.924899 C114.778,238.804899 115.5495,238.752399 116.3185,238.729899 C116.28925,238.582399 116.22925,238.447399 116.20625,238.299899 C115.415,233.167399 118.93075,228.362399 124.065,227.567399 C125.80575,227.297399 127.494,227.557399 129.01975,228.179899 C131.92875,217.574899 140.79475,209.122399 152.36325,207.337399 C168.07125,204.907399 182.771,215.674899 185.20025,231.379899 C185.4835,233.212399 185.57125,235.034899 185.508,236.824899 C187.47325,234.537399 190.22475,232.912399 193.43625,232.414899 C200.58975,231.307399 207.28525,236.209899 208.39125,243.364899 C208.65725,245.087399 208.567,246.782399 208.1885,248.379899 C209.14425,247.647399 210.2625,247.112399 211.532,246.917399 C215.57625,246.289899 219.3605,249.064899 219.98675,253.107399 C220.6105,257.154899 217.84175,260.937399 213.79775,261.559899 C211.23175,261.954899 178.174,267.067399 151.74325,271.152399 L103.95025,271.152399 C101.0255,268.384899 98.949,264.674899 98.28625,260.384899" id="Fill-24" fill="#FFFFFE"></path>
                <path d="M11.24775,566.209899 L20.37125,508.449899 C15.674,502.112399 12.7075,494.739899 11.7065,486.812399 C9.568,469.907399 17.04475,453.219899 30.64225,443.417399 L35.774,410.927399 L98.62425,365.222399 L110.84125,382.022399 L140.4725,386.702399 L135.7935,416.329899 L137.9835,419.347399 C142.91625,399.932399 159.2945,384.522399 180.3395,381.847399 C188.8295,380.777399 197.49025,381.894899 205.38825,385.084899 C217.91025,390.139899 227.6905,399.947399 232.826,412.042399 L274.94225,371.399899 L288.24225,385.182399 L287.57225,376.917399 L296.96975,365.854899 L294.22725,332.037399 L328.04475,329.297399 L337.90225,317.702399 L397.11225,368.032399 L401.65475,424.029899 L408.14975,424.207399 C410.61975,403.604899 426.83975,386.479899 448.33975,383.757399 C452.57225,383.222399 456.85225,383.277399 461.04475,383.912399 L461.85725,367.937399 L472.62975,358.209899 L474.35725,324.322399 L508.24475,326.049899 L519.53975,315.852399 L566.03725,367.357399 L575.03725,357.012399 L590.71475,370.649899 L620.63725,368.567399 L622.72225,398.489899 L633.67225,408.017399 L634.72225,423.049899 L637.76475,423.167399 C637.70725,422.769899 637.64725,422.374899 637.59975,421.979899 C634.39475,396.637399 652.40975,373.409899 677.74725,370.202399 C685.58225,369.214899 693.57475,370.239899 700.86475,373.184899 C701.35225,373.379899 701.83475,373.587399 702.30975,373.799899 L703.49975,366.969899 L715.36725,358.614899 L721.18225,325.189899 L754.61475,331.002399 L767.05725,322.247399 L808.44725,381.069899 C815.61225,370.337399 826.87975,362.347399 840.51225,359.677399 C850.07975,357.802399 859.89725,358.737399 868.90475,362.372399 C881.86475,367.604899 891.85725,377.807399 896.84725,390.519899 L940.46975,358.792399 L952.69225,375.597399 L982.31975,380.274899 L977.64225,409.904899 L986.17975,421.647399 L950.40975,575.737399 L901.40725,567.414899 L901.18725,570.784899 L780.95725,562.987399 L780.013595,568.4152 L778.745413,575.709642 L777.31975,583.909899 L708.89975,572.014899 L591.21225,567.479899 L561.61725,569.539899 L561.31725,575.427399 L451.55225,569.832399 L451.57975,569.287399 L413.35225,568.242399 L413.45475,569.529899 L326.25975,576.602399 L326.15725,582.342399 L216.27075,580.399899 L216.48075,568.512399 L121.13175,574.977399 L119.80975,583.354899 L84.27875,577.747399 L54.34325,585.222399 L53.18725,572.834899 L11.24775,566.209899 Z" id="Fill-38" fill="#A6D4D1"></path>
                <path d="M41.9385,571.642399 L0,565.022399 L9.1225,507.257399 C4.425,500.924899 1.45875,493.552399 0.45775,485.624899 C-1.6795,468.719899 5.796,452.029899 19.39225,442.227399 L24.524,409.739899 L87.3755,364.029899 L99.59225,380.832399 L129.22625,385.512399 L124.54475,415.142399 L126.73725,418.154899 C131.6675,398.737399 148.04575,383.327399 169.09075,380.664899 C177.58075,379.589899 186.24275,380.704899 194.1395,383.892399 C206.66275,388.944899 216.44175,398.757399 221.57725,410.854899 L263.69225,370.207399 L276.99475,383.997399 L276.32475,375.724899 L285.72225,364.667399 L282.97975,330.844899 L316.79725,328.104899 L326.65475,316.507399 L385.86475,366.842399 L390.40725,422.842399 L396.89975,423.017399 C399.37225,402.417399 415.59225,385.289899 437.08975,382.567399 C441.32225,382.037399 445.60475,382.089899 449.79475,382.719899 L450.60975,366.747399 L461.38225,357.022399 L463.10725,323.134899 L496.99725,324.859899 L508.28975,314.664899 L554.78975,366.167399 L563.78725,355.822399 L579.46475,369.459899 L609.38725,367.374899 L611.47225,397.299899 L622.42725,406.827399 L623.47475,421.862399 L626.51725,421.977399 C626.45725,421.582399 626.40225,421.184899 626.35225,420.787399 C623.14475,395.447399 641.15975,372.219899 666.49975,369.009899 C674.33475,368.024899 682.32475,369.054899 689.61725,371.997399 C690.10475,372.194899 690.58475,372.392399 691.06225,372.609899 L692.25225,365.777399 L704.11975,357.427399 L709.93475,323.999899 L743.36725,329.814899 L755.80725,321.059899 L797.19975,379.884899 C804.36475,369.149899 815.63225,361.157399 829.26475,358.487399 C838.82975,356.614899 848.64975,357.549899 857.65725,361.184899 C870.61475,366.417399 880.60725,376.619899 885.59725,389.329899 L929.22475,357.604899 L941.44225,374.409899 L971.07225,379.087399 L966.39225,408.717399 L974.93225,420.462399 L950.40975,575.737399 L890.15725,566.227399 L889.93975,569.594899 L769.70725,561.799899 L766.06975,582.719899 L697.65225,570.822399 L579.96225,566.289899 L550.36725,568.347399 L550.06725,574.244899 L440.30225,568.639899 L440.33225,568.102399 L402.10225,567.057399 L402.20725,568.337399 L315.01225,575.409899 L314.90975,581.154899 L205.022,579.209899 L205.232,567.322399 L109.884,573.787399 L108.55975,582.167399 L73.031,576.557399 L43.0945,584.034899 L41.9385,571.642399" id="Fill-39" fill="#FFFFFE"></path>
                <path d="M409.27225,432.787399 C406.92475,414.209899 420.07975,397.247399 438.65225,394.899899 C457.22225,392.549899 474.18475,405.699899 476.53225,424.277399 C478.87975,442.849899 465.72975,459.809899 447.15475,462.157399 C428.58475,464.509899 411.61975,451.352399 409.27225,432.787399" id="Fill-40" fill="#BEC935"></path>
                <polyline id="Fill-41" fill="#664628" points="469.16975 430.242399 447.37225 451.897399 440.37975 407.532399 443.17725 437.479899 423.48975 420.789899 443.45725 440.514899 450.60975 517.187399 457.39475 515.492399 447.88225 455.154899 469.16975 430.242399"></polyline>
                <path d="M638.68225,419.227399 C636.33475,400.654899 649.48975,383.697399 668.06225,381.342399 C686.63225,378.989899 703.59475,392.147399 705.94475,410.719899 C708.28975,429.289899 695.13725,446.254899 676.56475,448.599899 C657.99475,450.949899 641.02725,437.794899 638.68225,419.227399" id="Fill-42" fill="#BEC935"></path>
                <polyline id="Fill-43" fill="#664628" points="698.57975 416.682399 676.78475 438.339899 669.79225 393.977399 672.58725 423.919899 652.89725 407.232399 672.86725 426.957399 680.01725 503.632399 686.80225 501.934899 677.29475 441.594899 698.57975 416.682399"></polyline>
                <path d="M137.937,435.182399 C135.321,414.497399 149.97075,395.612399 170.65325,392.992399 C191.333,390.372399 210.22225,405.022399 212.837,425.709899 C215.45175,446.392399 200.807,465.279899 180.1245,467.889899 C159.44225,470.512399 140.54825,455.857399 137.937,435.182399" id="Fill-44" fill="#BEC935"></path>
                <polyline id="Fill-45" fill="#664628" points="204.63875 432.349899 180.365 456.467399 172.58075 407.062399 175.691 440.412399 153.76725 421.827399 176.0035 443.792399 183.9685 529.174899 191.526 527.287399 180.93525 460.092399 204.63875 432.349899"></polyline>
                <path d="M801.85975,414.989899 C797.85225,394.524899 811.19725,374.697399 831.65725,370.682399 C852.10975,366.682399 871.94475,380.019899 875.95225,400.479899 C879.95225,420.937399 866.61975,440.772399 846.15975,444.774899 C825.69975,448.779899 805.85975,435.439899 801.85975,414.989899" id="Fill-46" fill="#BEC935"></path>
                <polyline id="Fill-47" fill="#664628" points="868.21975 407.659899 845.62975 433.354899 834.52725 384.589899 839.88475 417.652399 816.74975 400.587399 840.42225 421.002399 854.13225 505.654899 861.54475 503.259899 846.44225 436.932399 868.21975 407.659899"></polyline>
                <polyline id="Fill-48" fill="#E9853D" points="487.03475 369.769899 473.21225 369.062399 474.88975 336.179899 488.71225 336.884899 487.03475 369.769899"></polyline>
                <polyline id="Fill-49" fill="#E9853D" points="462.09225 385.639899 506.72725 345.344899 547.02225 389.982399 538.28725 561.194899 453.35475 556.864899 462.09225 385.639899"></polyline>
                <polyline id="Fill-50" fill="#2D2E2C" points="462.09225 385.639899 506.72725 345.344899 547.02225 389.982399 547.69225 376.854899 507.39475 332.219899 462.76225 372.522399 462.09225 385.639899"></polyline>
                <polyline id="Fill-51" fill="#FFFFFE" points="531.73725 427.507399 507.87725 426.289899 509.70225 390.489899 533.56225 391.712399 531.73725 427.507399"></polyline>
                <polyline id="Fill-52" fill="#C3E5EB" points="530.32725 408.292399 531.05475 393.974899 522.70725 393.544899 521.97975 407.867399 530.32725 408.292399"></polyline>
                <polyline id="Fill-53" fill="#C3E5EB" points="519.59225 407.744899 520.32475 393.424899 511.96975 392.999899 511.23725 407.317399 519.59225 407.744899"></polyline>
                <polyline id="Fill-54" fill="#C3E5EB" points="511.11475 409.699899 510.38725 424.024899 518.73975 424.449899 519.47225 410.129899 511.11475 409.699899"></polyline>
                <polyline id="Fill-55" fill="#C3E5EB" points="521.85725 410.249899 521.12475 424.572399 529.47475 424.999899 530.20725 410.674899 521.85725 410.249899"></polyline>
                <polyline id="Fill-56" fill="#FFFFFE" points="529.10225 479.109899 505.24225 477.894899 507.07225 442.094899 530.92975 443.317399 529.10225 479.109899"></polyline>
                <polyline id="Fill-57" fill="#C3E5EB" points="527.69475 459.894899 528.42475 445.579899 520.07475 445.154899 519.34225 459.469899 527.69475 459.894899"></polyline>
                <polyline id="Fill-58" fill="#C3E5EB" points="516.95975 459.347399 517.68975 445.032399 509.33475 444.604899 508.60475 458.919899 516.95975 459.347399"></polyline>
                <polyline id="Fill-59" fill="#C3E5EB" points="508.48225 461.312399 507.74975 475.632399 516.10475 476.057399 516.83725 461.737399 508.48225 461.312399"></polyline>
                <polyline id="Fill-60" fill="#C3E5EB" points="519.21975 461.859899 518.49225 476.177399 526.84225 476.604899 527.56975 462.289899 519.21975 461.859899"></polyline>
                <polyline id="Fill-61" fill="#FFFFFE" points="526.47225 530.717399 502.61225 529.499899 504.43475 493.704899 528.29725 494.924899 526.47225 530.717399"></polyline>
                <polyline id="Fill-62" fill="#C3E5EB" points="525.05975 511.507399 525.79225 497.189899 517.44225 496.762399 516.70975 511.082399 525.05975 511.507399"></polyline>
                <polyline id="Fill-63" fill="#C3E5EB" points="514.32475 510.962399 515.05725 496.637399 506.69975 496.214899 505.97225 510.534899 514.32475 510.962399"></polyline>
                <polyline id="Fill-64" fill="#C3E5EB" points="505.84725 512.919899 505.11725 527.234899 513.47225 527.664899 514.20475 513.342399 505.84725 512.919899"></polyline>
                <polyline id="Fill-65" fill="#C3E5EB" points="516.58725 513.464899 515.85725 527.787399 524.20725 528.214899 524.93975 513.892399 516.58725 513.464899"></polyline>
                <polyline id="Fill-66" fill="#FFFFFE" points="497.33725 425.744899 473.47225 424.529899 475.29725 388.737399 499.16475 389.954899 497.33725 425.744899"></polyline>
                <polyline id="Fill-67" fill="#C3E5EB" points="495.92725 406.539899 496.65725 392.214899 488.29975 391.787399 487.56975 406.112399 495.92725 406.539899"></polyline>
                <polyline id="Fill-68" fill="#C3E5EB" points="485.18475 405.992399 485.91475 391.669899 477.56225 391.237399 476.82975 405.562399 485.18475 405.992399"></polyline>
                <polyline id="Fill-69" fill="#C3E5EB" points="476.70725 407.947399 475.97725 422.267399 484.33475 422.694899 485.06475 408.372399 476.70725 407.947399"></polyline>
                <polyline id="Fill-70" fill="#C3E5EB" points="487.44975 408.492399 486.71975 422.819899 495.07225 423.242399 495.80725 408.917399 487.44975 408.492399"></polyline>
                <polyline id="Fill-71" fill="#FFFFFE" points="494.70475 477.352399 470.83725 476.137399 472.66475 440.342399 496.52975 441.559899 494.70475 477.352399"></polyline>
                <polyline id="Fill-72" fill="#C3E5EB" points="493.29475 458.139899 494.02475 443.827399 485.66975 443.399899 484.93975 457.714899 493.29475 458.139899"></polyline>
                <polyline id="Fill-73" fill="#C3E5EB" points="482.55225 457.592399 483.28225 443.277399 474.92725 442.852399 474.19725 457.164899 482.55225 457.592399"></polyline>
                <polyline id="Fill-74" fill="#C3E5EB" points="474.07475 459.559899 473.34475 473.874899 481.69975 474.302399 482.42975 459.984899 474.07475 459.559899"></polyline>
                <polyline id="Fill-75" fill="#C3E5EB" points="484.81725 460.104899 484.08475 474.422399 492.43975 474.847399 493.17225 460.529899 484.81725 460.104899"></polyline>
                <polyline id="Fill-76" fill="#FFFFFE" points="492.06975 528.964899 468.20475 527.747399 470.03225 491.952399 493.89725 493.169899 492.06975 528.964899"></polyline>
                <polyline id="Fill-77" fill="#C3E5EB" points="490.65975 509.754899 491.39225 495.432399 483.03475 495.007399 482.30475 509.324899 490.65975 509.754899"></polyline>
                <polyline id="Fill-78" fill="#C3E5EB" points="479.91725 509.202399 480.64725 494.887399 472.29475 494.459899 471.56225 508.777399 479.91725 509.202399"></polyline>
                <polyline id="Fill-79" fill="#C3E5EB" points="471.43975 511.159899 470.70975 525.482399 479.06725 525.912399 479.79725 511.587399 471.43975 511.159899"></polyline>
                <polyline id="Fill-80" fill="#C3E5EB" points="482.18475 511.712399 481.45225 526.029899 489.80725 526.454899 490.53725 512.137399 482.18475 511.712399"></polyline>
                <polyline id="Fill-81" fill="#E9853D" points="312.82975 373.932399 299.03475 375.052399 296.37225 342.227399 310.16975 341.109899 312.82975 373.932399"></polyline>
                <polyline id="Fill-82" fill="#E9853D" points="290.19225 392.949899 329.13725 347.127399 374.95475 386.077399 388.81225 556.954899 304.04725 563.832399 290.19225 392.949899"></polyline>
                <polyline id="Fill-83" fill="#2D2E2C" points="290.19225 392.949899 329.13725 347.127399 374.95475 386.077399 373.89225 372.977399 328.07725 334.032399 289.12975 379.849899 290.19225 392.949899"></polyline>
                <polyline id="Fill-84" fill="#FFFFFE" points="364.73975 425.282399 340.92475 427.217399 338.02975 391.489899 361.83975 389.557399 364.73975 425.282399"></polyline>
                <polyline id="Fill-85" fill="#C3E5EB" points="360.81225 406.427399 359.65225 392.132399 351.31975 392.809899 352.47975 407.102399 360.81225 406.427399"></polyline>
                <polyline id="Fill-86" fill="#C3E5EB" points="350.09975 407.297399 348.93975 393.004899 340.59975 393.677399 341.75975 407.972399 350.09975 407.297399"></polyline>
                <polyline id="Fill-87" fill="#C3E5EB" points="341.95225 410.352399 343.11225 424.644899 351.44975 423.969899 350.29225 409.674899 341.95225 410.352399"></polyline>
                <polyline id="Fill-88" fill="#C3E5EB" points="352.67225 409.482399 353.83225 423.774899 362.16475 423.102399 361.00475 408.807399 352.67225 409.482399"></polyline>
                <polyline id="Fill-89" fill="#FFFFFE" points="368.91475 476.789899 345.09975 478.724899 342.20225 442.997399 366.01725 441.064899 368.91475 476.789899"></polyline>
                <polyline id="Fill-90" fill="#C3E5EB" points="364.98975 457.927399 363.82975 443.639899 355.49725 444.319899 356.65475 458.602399 364.98975 457.927399"></polyline>
                <polyline id="Fill-91" fill="#C3E5EB" points="354.27475 458.797399 353.11725 444.509899 344.77975 445.184899 345.93725 459.472399 354.27475 458.797399"></polyline>
                <polyline id="Fill-92" fill="#C3E5EB" points="346.12975 461.859899 347.28975 476.149899 355.62975 475.474899 354.46725 461.179899 346.12975 461.859899"></polyline>
                <polyline id="Fill-93" fill="#C3E5EB" points="356.84975 460.989899 358.00725 475.282399 366.34225 474.602399 365.18225 460.317399 356.84975 460.989899"></polyline>
                <polyline id="Fill-94" fill="#FFFFFE" points="373.09225 528.299899 349.27975 530.227399 346.38225 494.504899 370.19475 492.574899 373.09225 528.299899"></polyline>
                <polyline id="Fill-95" fill="#C3E5EB" points="369.16725 509.437399 368.00725 495.144899 359.67225 495.822399 360.83475 510.114899 369.16725 509.437399"></polyline>
                <polyline id="Fill-96" fill="#C3E5EB" points="358.45225 510.309899 357.29475 496.012399 348.95475 496.687399 350.11475 510.984899 358.45225 510.309899"></polyline>
                <polyline id="Fill-97" fill="#C3E5EB" points="350.30725 513.357399 351.46725 527.654899 359.80475 526.977399 358.64475 512.684899 350.30725 513.357399"></polyline>
                <polyline id="Fill-98" fill="#C3E5EB" points="361.02725 512.492399 362.18475 526.784899 370.51975 526.112399 369.35975 511.819899 361.02725 512.492399"></polyline>
                <polyline id="Fill-99" fill="#FFFFFE" points="330.40475 428.067399 306.58475 430.002399 303.68725 394.277399 327.50975 392.347399 330.40475 428.067399"></polyline>
                <polyline id="Fill-100" fill="#C3E5EB" points="326.47975 409.212399 325.31975 394.917399 316.98475 395.587399 318.14475 409.889899 326.47975 409.212399"></polyline>
                <polyline id="Fill-101" fill="#C3E5EB" points="315.75975 410.079899 314.60225 395.784899 306.26225 396.467399 307.41975 410.757399 315.75975 410.079899"></polyline>
                <polyline id="Fill-102" fill="#C3E5EB" points="307.61475 413.137399 308.77225 427.432399 317.11225 426.757399 315.95225 412.457399 307.61475 413.137399"></polyline>
                <polyline id="Fill-103" fill="#C3E5EB" points="318.33725 412.262399 319.49475 426.559899 327.83225 425.884899 326.67225 411.592399 318.33725 412.262399"></polyline>
                <polyline id="Fill-104" fill="#FFFFFE" points="334.58225 479.572399 310.76475 481.502399 307.86475 445.784899 331.68725 443.849899 334.58225 479.572399"></polyline>
                <polyline id="Fill-105" fill="#C3E5EB" points="330.65725 460.712399 329.49725 446.422399 321.15975 447.102399 322.31725 461.387399 330.65725 460.712399"></polyline>
                <polyline id="Fill-106" fill="#C3E5EB" points="319.93725 461.579899 318.77725 447.294899 310.43975 447.972399 311.59725 462.259899 319.93725 461.579899"></polyline>
                <polyline id="Fill-107" fill="#C3E5EB" points="311.79225 464.644899 312.95225 478.932399 321.28975 478.257399 320.13225 463.964899 311.79225 464.644899"></polyline>
                <polyline id="Fill-108" fill="#C3E5EB" points="322.51225 463.774899 323.67225 478.064899 332.00975 477.389899 330.84975 463.102399 322.51225 463.774899"></polyline>
                <polyline id="Fill-109" fill="#FFFFFE" points="338.75975 531.082399 314.93975 533.014899 312.04225 497.289899 335.86225 495.354899 338.75975 531.082399"></polyline>
                <polyline id="Fill-110" fill="#C3E5EB" points="334.83225 512.222399 333.67475 497.929899 325.33725 498.607399 326.49725 512.899899 334.83225 512.222399"></polyline>
                <polyline id="Fill-111" fill="#C3E5EB" points="324.11475 513.092399 322.95475 498.797399 314.61725 499.477399 315.77725 513.764899 324.11475 513.092399"></polyline>
                <polyline id="Fill-112" fill="#C3E5EB" points="315.96725 516.147399 317.12725 530.434899 325.46725 529.762399 324.30725 515.467399 315.96725 516.147399"></polyline>
                <polyline id="Fill-113" fill="#C3E5EB" points="326.68975 515.279899 327.84725 529.574899 336.18725 528.892399 335.02725 514.602399 326.68975 515.279899"></polyline>
                <polyline id="Fill-114" fill="#E9853D" points="939.80975 416.094899 952.32975 418.072399 956.85725 389.427399 944.33475 387.447399 939.80975 416.094899"></polyline>
                <polyline id="Fill-115" fill="#E9853D" points="959.80225 436.592399 924.42975 387.949899 875.79725 423.319899 856.06225 548.257399 940.06975 561.524899 959.80225 436.592399"></polyline>
                <polyline id="Fill-116" fill="#2D2E2C" points="959.80225 436.592399 924.42975 387.949899 875.79725 423.319899 877.84725 410.342399 926.47975 374.967399 961.85225 423.607399 959.80225 436.592399"></polyline>
                <polyline id="Fill-117" fill="#FFFFFE" points="883.01725 463.187399 906.61975 466.914899 912.21225 431.514899 888.60975 427.789899 883.01725 463.187399"></polyline>
                <polyline id="Fill-118" fill="#C3E5EB" points="888.35475 444.682399 890.59475 430.514899 898.85475 431.819899 896.61725 445.987399 888.35475 444.682399"></polyline>
                <polyline id="Fill-119" fill="#C3E5EB" points="898.97725 446.359899 901.21725 432.197399 909.47475 433.497399 907.23725 447.664899 898.97725 446.359899"></polyline>
                <polyline id="Fill-120" fill="#C3E5EB" points="906.86725 450.022399 904.62975 464.187399 896.36725 462.882399 898.60475 448.719899 906.86725 450.022399"></polyline>
                <polyline id="Fill-121" fill="#C3E5EB" points="896.24475 448.344899 894.00725 462.507399 885.74725 461.199899 887.98475 447.044899 896.24475 448.344899"></polyline>
                <polyline id="Fill-122" fill="#FFFFFE" points="874.95225 514.232399 898.55725 517.957399 904.14975 482.554899 880.54475 478.827399 874.95225 514.232399"></polyline>
                <polyline id="Fill-123" fill="#C3E5EB" points="880.29475 495.722399 882.53225 481.559899 890.79225 482.867399 888.55475 497.024899 880.29475 495.722399"></polyline>
                <polyline id="Fill-124" fill="#C3E5EB" points="890.91975 497.397399 893.15475 483.234899 901.41225 484.544899 899.17725 498.702399 890.91975 497.397399"></polyline>
                <polyline id="Fill-125" fill="#C3E5EB" points="898.80475 501.067399 896.56975 515.224899 888.30975 513.919899 890.54475 499.759899 898.80475 501.067399"></polyline>
                <polyline id="Fill-126" fill="#C3E5EB" points="888.18225 499.384899 885.94725 513.547399 877.68725 512.244899 879.92225 498.082399 888.18225 499.384899"></polyline>
                <polyline id="Fill-127" fill="#FFFFFE" points="917.03975 468.562399 940.63975 472.292399 946.23475 436.887399 922.62725 433.159899 917.03975 468.562399"></polyline>
                <polyline id="Fill-128" fill="#C3E5EB" points="922.37975 450.057399 924.61475 435.892399 932.88225 437.194899 930.64225 451.359899 922.37975 450.057399"></polyline>
                <polyline id="Fill-129" fill="#C3E5EB" points="933.00225 451.732399 935.23725 437.569899 943.50225 438.869899 941.26475 453.034899 933.00225 451.732399"></polyline>
                <polyline id="Fill-130" fill="#C3E5EB" points="940.89475 455.399899 938.65725 469.559899 930.39225 468.254899 932.62725 454.094899 940.89475 455.399899"></polyline>
                <polyline id="Fill-131" fill="#C3E5EB" points="930.27225 453.719899 928.03475 467.884899 919.77225 466.574899 922.00725 452.414899 930.27225 453.719899"></polyline>
                <polyline id="Fill-132" fill="#FFFFFE" points="908.97475 519.604899 932.57975 523.334899 938.16975 487.927399 914.56975 484.202399 908.97475 519.604899"></polyline>
                <polyline id="Fill-133" fill="#C3E5EB" points="914.31725 501.092399 916.55475 486.932399 924.81725 488.234899 922.58475 502.399899 914.31725 501.092399"></polyline>
                <polyline id="Fill-134" fill="#C3E5EB" points="924.93975 502.774899 927.17725 488.612399 935.43975 489.914899 933.20475 504.074899 924.93975 502.774899"></polyline>
                <polyline id="Fill-135" fill="#C3E5EB" points="932.82975 506.442399 930.59475 520.599899 922.32975 519.294899 924.56725 505.132399 932.82975 506.442399"></polyline>
                <polyline id="Fill-136" fill="#C3E5EB" points="922.20725 504.759899 919.97225 518.924899 911.70725 517.614899 913.94725 503.454899 922.20725 504.759899"></polyline>
                <polyline id="Fill-137" fill="#E9853D" points="97.9615 422.517399 110.48475 424.494899 115.0075 395.849899 102.48775 393.872399 97.9615 422.517399"></polyline>
                <polyline id="Fill-138" fill="#E9853D" points="117.95425 443.017399 82.583 394.377399 33.949 429.747399 14.214 554.682399 98.22275 567.947399 117.95425 443.017399"></polyline>
                <polyline id="Fill-139" fill="#2D2E2C" points="117.95425 443.017399 82.583 394.377399 33.949 429.747399 35.9985 416.762399 84.63375 381.392399 120.005 430.032399 117.95425 443.017399"></polyline>
                <polyline id="Fill-140" fill="#FFFFFE" points="41.16825 469.612399 64.77175 473.344899 70.36375 437.939899 46.76025 434.212399 41.16825 469.612399"></polyline>
                <polyline id="Fill-141" fill="#C3E5EB" points="46.50775 451.107399 48.7465 436.944899 57.007 438.247399 54.76925 452.412399 46.50775 451.107399"></polyline>
                <polyline id="Fill-142" fill="#C3E5EB" points="57.1315 452.789899 59.369 438.622399 67.627 439.924899 65.39075 454.087399 57.1315 452.789899"></polyline>
                <polyline id="Fill-143" fill="#C3E5EB" points="65.01725 456.449899 62.78075 470.614899 54.5215 469.304899 56.76025 455.142399 65.01725 456.449899"></polyline>
                <polyline id="Fill-144" fill="#C3E5EB" points="54.397 454.769899 52.1595 468.934899 43.899 467.627399 46.13525 453.467399 54.397 454.769899"></polyline>
                <polyline id="Fill-145" fill="#FFFFFE" points="33.10675 520.657399 56.7115 524.382399 62.30225 488.977399 38.69875 485.252399 33.10675 520.657399"></polyline>
                <polyline id="Fill-146" fill="#C3E5EB" points="38.44725 502.144899 40.685 487.984899 48.94425 489.289899 46.709 503.449899 38.44725 502.144899"></polyline>
                <polyline id="Fill-147" fill="#C3E5EB" points="49.071 503.824899 51.3075 489.659899 59.56675 490.964899 57.32925 505.129899 49.071 503.824899"></polyline>
                <polyline id="Fill-148" fill="#C3E5EB" points="56.95575 507.492399 54.71925 521.649899 46.46125 520.347399 48.69875 506.184899 56.95575 507.492399"></polyline>
                <polyline id="Fill-149" fill="#C3E5EB" points="46.3355 505.814899 44.09675 519.974899 35.8375 518.667399 38.07625 504.507399 46.3355 505.814899"></polyline>
                <polyline id="Fill-150" fill="#FFFFFE" points="75.1905 474.989899 98.7965 478.714899 104.38725 443.309899 80.78125 439.582399 75.1905 474.989899"></polyline>
                <polyline id="Fill-151" fill="#C3E5EB" points="80.53225 456.479899 82.76875 442.314899 91.03275 443.619899 88.79525 457.787399 80.53225 456.479899"></polyline>
                <polyline id="Fill-152" fill="#C3E5EB" points="91.1525 458.157399 93.39125 443.989899 101.65525 445.299899 99.41775 459.467399 91.1525 458.157399"></polyline>
                <polyline id="Fill-153" fill="#C3E5EB" points="99.04425 461.824899 96.8105 475.982399 88.5425 474.682399 90.78125 460.519899 99.04425 461.824899"></polyline>
                <polyline id="Fill-154" fill="#C3E5EB" points="88.423 460.149899 86.1865 474.304899 77.92375 472.999899 80.15875 458.842399 88.423 460.149899"></polyline>
                <polyline id="Fill-155" fill="#FFFFFE" points="67.129 526.029899 90.7325 529.754899 96.32325 494.359899 72.721 490.624899 67.129 526.029899"></polyline>
                <polyline id="Fill-156" fill="#C3E5EB" points="72.47075 507.519899 74.70825 493.357399 82.97125 494.664899 80.735 508.824899 72.47075 507.519899"></polyline>
                <polyline id="Fill-157" fill="#C3E5EB" points="83.09325 509.194899 85.32975 495.032399 93.59375 496.347399 91.35625 510.502399 83.09325 509.194899"></polyline>
                <polyline id="Fill-158" fill="#C3E5EB" points="90.98525 512.864899 88.74775 527.024899 80.4835 525.719899 82.71975 511.557399 90.98525 512.864899"></polyline>
                <polyline id="Fill-159" fill="#C3E5EB" points="80.3615 511.187399 78.125 525.347399 69.861 524.042399 72.09975 509.882399 80.3615 511.187399"></polyline>
                <polyline id="Fill-160" fill="#AE243C" points="728.04225 373.189899 714.40475 370.817399 720.04975 338.374899 733.68475 340.744899 728.04225 373.189899"></polyline>
                <polyline id="Fill-161" fill="#AE243C" points="701.36475 385.937399 750.54225 351.324899 785.14475 400.509899 755.95225 568.344899 672.17225 553.774899 701.36475 385.937399"></polyline>
                <polyline id="Fill-162" fill="#2D2E2C" points="701.36475 385.937399 750.54225 351.324899 785.14475 400.509899 787.39975 387.557399 752.79475 338.379899 703.61475 372.979899 701.36475 385.937399"></polyline>
                <polyline id="Fill-163" fill="#FFFFFE" points="765.43475 435.907399 741.89975 431.812399 748.03975 396.504899 771.57725 400.594899 765.43475 435.907399"></polyline>
                <polyline id="Fill-164" fill="#C3E5EB" points="766.35975 416.667399 768.81475 402.539899 760.57725 401.104899 758.12225 415.234899 766.35975 416.667399"></polyline>
                <polyline id="Fill-165" fill="#C3E5EB" points="755.76975 414.824899 758.22475 400.699899 749.98475 399.267399 747.52725 413.389899 755.76975 414.824899"></polyline>
                <polyline id="Fill-166" fill="#C3E5EB" points="747.11725 415.742399 744.65975 429.869899 752.90225 431.302399 755.35975 417.174899 747.11725 415.742399"></polyline>
                <polyline id="Fill-167" fill="#C3E5EB" points="757.71475 417.582399 755.25475 431.712399 763.49225 433.147399 765.94975 419.017399 757.71475 417.582399"></polyline>
                <polyline id="Fill-168" fill="#FFFFFE" points="756.57975 486.814899 733.04225 482.724899 739.18475 447.407399 762.72225 451.499899 756.57975 486.814899"></polyline>
                <polyline id="Fill-169" fill="#C3E5EB" points="757.50725 467.572399 759.96225 453.449899 751.72475 452.014899 749.26725 466.139899 757.50725 467.572399"></polyline>
                <polyline id="Fill-170" fill="#C3E5EB" points="746.91475 465.732399 749.37225 451.607399 741.12975 450.172399 738.67225 464.297399 746.91475 465.732399"></polyline>
                <polyline id="Fill-171" fill="#C3E5EB" points="738.26225 466.657399 735.80725 480.779899 744.04725 482.214899 746.50475 468.084899 738.26225 466.657399"></polyline>
                <polyline id="Fill-172" fill="#C3E5EB" points="748.85725 468.494899 746.40225 482.622399 754.63725 484.057399 757.09725 469.929899 748.85725 468.494899"></polyline>
                <polyline id="Fill-173" fill="#FFFFFE" points="747.72475 537.727399 724.18725 533.634899 730.32975 498.319899 753.86725 502.409899 747.72475 537.727399"></polyline>
                <polyline id="Fill-174" fill="#C3E5EB" points="748.65225 518.484899 751.10975 504.362399 742.86975 502.924899 740.41225 517.049899 748.65225 518.484899"></polyline>
                <polyline id="Fill-175" fill="#C3E5EB" points="738.05975 516.644899 740.51975 502.512399 732.27475 501.082399 729.81475 515.209899 738.05975 516.644899"></polyline>
                <polyline id="Fill-176" fill="#C3E5EB" points="729.40725 517.564899 726.95225 531.687399 735.19475 533.122399 737.64975 518.997399 729.40725 517.564899"></polyline>
                <polyline id="Fill-177" fill="#C3E5EB" points="740.00225 519.404899 737.54475 533.532399 745.78225 534.964899 748.24225 520.839899 740.00225 519.404899"></polyline>
                <polyline id="Fill-178" fill="#FFFFFE" points="731.49975 430.002399 707.95725 425.904899 714.09725 390.597399 737.64225 394.689899 731.49975 430.002399"></polyline>
                <polyline id="Fill-179" fill="#C3E5EB" points="732.42225 410.764899 734.87975 396.637399 726.63975 395.204899 724.17975 409.327399 732.42225 410.764899"></polyline>
                <polyline id="Fill-180" fill="#C3E5EB" points="721.82725 408.917399 724.28475 394.794899 716.04225 393.362399 713.58475 407.487399 721.82725 408.917399"></polyline>
                <polyline id="Fill-181" fill="#C3E5EB" points="713.17475 409.837399 710.71975 423.964899 718.96225 425.397399 721.41725 411.269899 713.17475 409.837399"></polyline>
                <polyline id="Fill-182" fill="#C3E5EB" points="723.77225 411.679899 721.31475 425.807399 729.55725 427.242399 732.01225 413.114899 723.77225 411.679899"></polyline>
                <polyline id="Fill-183" fill="#FFFFFE" points="722.64475 480.917399 699.09975 476.817399 705.24475 441.507399 728.78975 445.599899 722.64475 480.917399"></polyline>
                <polyline id="Fill-184" fill="#C3E5EB" points="723.56975 461.669899 726.02725 447.544899 717.78475 446.117399 715.32725 460.237399 723.56975 461.669899"></polyline>
                <polyline id="Fill-185" fill="#C3E5EB" points="712.97475 459.824899 715.42975 445.704899 707.18725 444.272399 704.72975 458.392399 712.97475 459.824899"></polyline>
                <polyline id="Fill-186" fill="#C3E5EB" points="704.32225 460.747399 701.86475 474.874899 710.10725 476.309899 712.56475 462.184899 704.32225 460.747399"></polyline>
                <polyline id="Fill-187" fill="#C3E5EB" points="714.91725 462.594899 712.45975 476.717399 720.70225 478.149899 723.15975 464.027399 714.91725 462.594899"></polyline>
                <polyline id="Fill-188" fill="#FFFFFE" points="713.78975 531.822399 690.24475 527.727399 696.38725 492.414899 719.93225 496.509899 713.78975 531.822399"></polyline>
                <polyline id="Fill-189" fill="#C3E5EB" points="714.71475 512.582399 717.16975 498.452399 708.93225 497.019899 706.47225 511.147399 714.71475 512.582399"></polyline>
                <polyline id="Fill-190" fill="#C3E5EB" points="704.11725 510.737399 706.57475 496.614899 698.33225 495.182399 695.87475 509.302399 704.11725 510.737399"></polyline>
                <polyline id="Fill-191" fill="#C3E5EB" points="695.46475 511.659899 693.00975 525.784899 701.25225 527.219899 703.70725 513.094899 695.46475 511.659899"></polyline>
                <polyline id="Fill-192" fill="#C3E5EB" points="706.06225 513.504899 703.60475 527.629899 711.84725 529.062399 714.30225 514.937399 706.06225 513.504899"></polyline>
                <polyline id="Fill-193" fill="#78A695" points="587.21725 410.449899 599.86725 409.567399 597.85225 380.639899 585.20475 381.517399 587.21725 410.449899"></polyline>
                <polyline id="Fill-194" fill="#78A695" points="611.29975 425.937399 565.91975 386.469899 526.45725 431.842399 535.16475 556.949899 620.00725 551.044899 611.29975 425.937399"></polyline>
                <polyline id="Fill-195" fill="#2D2E2C" points="611.29975 425.937399 565.91975 386.469899 526.45725 431.842399 525.54225 418.732399 565.00975 373.362399 610.38225 412.827399 611.29975 425.937399"></polyline>
                <polyline id="Fill-196" fill="#FFFFFE" points="542.42975 469.079899 566.26975 467.424899 563.77975 431.659899 539.94225 433.322399 542.42975 469.079899"></polyline>
                <polyline id="Fill-197" fill="#C3E5EB" points="543.48725 449.837399 542.49225 435.537399 550.83475 434.957399 551.83225 449.257399 543.48725 449.837399"></polyline>
                <polyline id="Fill-198" fill="#C3E5EB" points="554.21475 449.094899 553.21975 434.792399 561.56225 434.214899 562.55475 448.514899 554.21475 449.094899"></polyline>
                <polyline id="Fill-199" fill="#C3E5EB" points="562.72225 450.897399 563.71725 465.202399 555.37725 465.779899 554.38225 451.477399 562.72225 450.897399"></polyline>
                <polyline id="Fill-200" fill="#C3E5EB" points="551.99225 451.644899 552.98975 465.949899 544.64975 466.532399 543.65225 452.222399 551.99225 451.644899"></polyline>
                <polyline id="Fill-201" fill="#FFFFFE" points="546.02225 520.629899 569.85975 518.967399 567.37225 483.212399 543.53225 484.874899 546.02225 520.629899"></polyline>
                <polyline id="Fill-202" fill="#C3E5EB" points="547.07725 501.394899 546.07975 487.087399 554.42225 486.509899 555.41975 500.814899 547.07725 501.394899"></polyline>
                <polyline id="Fill-203" fill="#C3E5EB" points="557.80475 500.642399 556.80725 486.342399 565.14725 485.759899 566.14475 500.067399 557.80475 500.642399"></polyline>
                <polyline id="Fill-204" fill="#C3E5EB" points="566.30975 502.449899 567.30475 516.749899 558.96725 517.327399 557.96975 503.029899 566.30975 502.449899"></polyline>
                <polyline id="Fill-205" fill="#C3E5EB" points="555.58225 503.199899 556.57725 517.497399 548.23975 518.077399 547.24225 503.774899 555.58225 503.199899"></polyline>
                <polyline id="Fill-206" fill="#FFFFFE" points="576.79225 466.687399 600.63225 465.027399 598.14225 429.267399 574.30225 430.929899 576.79225 466.687399"></polyline>
                <polyline id="Fill-207" fill="#C3E5EB" points="577.84725 447.449899 576.85475 433.147399 585.19975 432.567399 586.19225 446.867399 577.84725 447.449899"></polyline>
                <polyline id="Fill-208" fill="#C3E5EB" points="588.57475 446.702399 587.57975 432.399899 595.92975 431.822399 596.92225 446.122399 588.57475 446.702399"></polyline>
                <polyline id="Fill-209" fill="#C3E5EB" points="597.08975 448.504899 598.08475 462.809899 589.73725 463.387399 588.74225 449.079899 597.08975 448.504899"></polyline>
                <polyline id="Fill-210" fill="#C3E5EB" points="586.35975 449.252399 587.35475 463.552399 579.00975 464.139899 578.01475 449.832399 586.35975 449.252399"></polyline>
                <polyline id="Fill-211" fill="#FFFFFE" points="580.38225 518.234899 604.21975 516.574899 601.73225 480.822399 577.89225 482.479899 580.38225 518.234899"></polyline>
                <polyline id="Fill-212" fill="#C3E5EB" points="581.43725 499.002399 580.43975 484.694899 588.78475 484.119899 589.78225 498.422399 581.43725 499.002399"></polyline>
                <polyline id="Fill-213" fill="#C3E5EB" points="592.16475 498.254899 591.16725 483.952399 599.51725 483.364899 600.50975 497.674899 592.16475 498.254899"></polyline>
                <polyline id="Fill-214" fill="#C3E5EB" points="600.67475 500.057399 601.67225 514.359899 593.32725 514.937399 592.32975 500.637399 600.67475 500.057399"></polyline>
                <polyline id="Fill-215" fill="#C3E5EB" points="589.94725 500.799899 590.94475 515.107399 582.59975 515.687399 581.60225 501.382399 589.94725 500.799899"></polyline>
                <polyline id="Fill-216" fill="#E9853D" points="592.42975 476.332399 709.71725 480.847399 706.71975 558.732399 589.42975 554.214899 592.42975 476.332399"></polyline>
                <polyline id="Fill-217" fill="#2D2E2C" points="718.46475 486.584899 582.95725 481.364899 596.29725 445.407399 707.92975 449.704899 718.46475 486.584899"></polyline>
                <polyline id="Fill-218" fill="#E9853D" points="613.47725 433.914899 625.22975 434.367399 624.33225 457.647399 612.58475 457.194899 613.47725 433.914899"></polyline>
                <polyline id="Fill-219" fill="#FFFFFE" points="694.79225 529.359899 670.90975 528.442399 672.29225 492.629899 696.16725 493.547399 694.79225 529.359899"></polyline>
                <polyline id="Fill-220" fill="#C3E5EB" points="693.13975 510.164899 693.68975 495.842399 685.32975 495.522399 684.78225 509.842399 693.13975 510.164899"></polyline>
                <polyline id="Fill-221" fill="#C3E5EB" points="682.39225 509.752399 682.94225 495.427399 674.58975 495.107399 674.03475 509.429899 682.39225 509.752399"></polyline>
                <polyline id="Fill-222" fill="#C3E5EB" points="673.94475 511.819899 673.39225 526.147399 681.74725 526.469899 682.30225 512.137399 673.94475 511.819899"></polyline>
                <polyline id="Fill-223" fill="#C3E5EB" points="684.68725 512.232399 684.13725 526.559899 692.49725 526.882399 693.04725 512.554899 684.68725 512.232399"></polyline>
                <polyline id="Fill-224" fill="#FFFFFE" points="660.36725 528.034899 636.48475 527.114899 637.86475 491.302399 661.74475 492.222399 660.36725 528.034899"></polyline>
                <polyline id="Fill-225" fill="#C3E5EB" points="658.71225 508.842399 659.26475 494.514899 650.90725 494.194899 650.35475 508.519899 658.71225 508.842399"></polyline>
                <polyline id="Fill-226" fill="#C3E5EB" points="647.96475 508.429899 648.51725 494.099899 640.15725 493.782399 639.60725 508.109899 647.96475 508.429899"></polyline>
                <polyline id="Fill-227" fill="#C3E5EB" points="639.51475 510.494899 638.96475 524.822399 647.32225 525.142399 647.87475 510.814899 639.51475 510.494899"></polyline>
                <polyline id="Fill-228" fill="#C3E5EB" points="650.26475 510.907399 649.71225 525.232399 658.06725 525.554899 658.62225 511.229899 650.26475 510.907399"></polyline>
                <polyline id="Fill-229" fill="#FFFFFE" points="625.93975 526.707399 602.06725 525.789899 603.44725 489.979899 627.31725 490.897399 625.93975 526.707399"></polyline>
                <polyline id="Fill-230" fill="#C3E5EB" points="624.28725 507.512399 624.84225 493.189899 616.48225 492.867399 615.93475 507.194899 624.28725 507.512399"></polyline>
                <polyline id="Fill-231" fill="#C3E5EB" points="613.54225 507.099899 614.09225 492.777399 605.73975 492.454899 605.18725 506.779899 613.54225 507.099899"></polyline>
                <polyline id="Fill-232" fill="#C3E5EB" points="605.09725 509.169899 604.54225 523.494899 612.89975 523.817399 613.45225 509.487399 605.09725 509.169899"></polyline>
                <polyline id="Fill-233" fill="#C3E5EB" points="615.84225 509.579899 615.28975 523.909899 623.64475 524.232399 624.19475 509.902399 615.84225 509.579899"></polyline>
                <polyline id="Fill-234" fill="#78A695" points="763.18225 481.394899 882.52725 489.139899 878.03475 558.522399 758.68225 550.784899 763.18225 481.394899"></polyline>
                <polyline id="Fill-235" fill="#2D2E2C" points="891.43225 493.017399 753.54225 484.079899 768.09225 447.812399 881.68475 455.179899 891.43225 493.017399"></polyline>
                <polyline id="Fill-236" fill="#78A695" points="785.89975 436.567399 797.85725 437.339899 796.31975 461.032399 784.36475 460.252399 785.89975 436.567399"></polyline>
                <polyline id="Fill-237" fill="#FFFFFE" points="866.16975 535.959899 841.86975 534.387399 844.23475 497.944899 868.53225 499.517399 866.16975 535.959899"></polyline>
                <polyline id="Fill-238" fill="#C3E5EB" points="865.00225 516.367399 865.94725 501.789899 857.43975 501.237399 856.49225 515.814899 865.00225 516.367399"></polyline>
                <polyline id="Fill-239" fill="#C3E5EB" points="854.06475 515.657399 855.01225 501.074899 846.50725 500.527399 845.56225 515.104899 854.06475 515.657399"></polyline>
                <polyline id="Fill-240" fill="#C3E5EB" points="845.40475 517.537399 844.45975 532.117399 852.95975 532.669899 853.90725 518.089899 845.40475 517.537399"></polyline>
                <polyline id="Fill-241" fill="#C3E5EB" points="856.33725 518.247399 855.39225 532.827399 863.89725 533.377399 864.84225 518.797399 856.33725 518.247399"></polyline>
                <polyline id="Fill-242" fill="#FFFFFE" points="831.13975 533.687399 806.83975 532.112399 809.20225 495.669899 833.50475 497.244899 831.13975 533.687399"></polyline>
                <polyline id="Fill-243" fill="#C3E5EB" points="829.96975 514.097399 830.91475 499.514899 822.40975 498.964899 821.46725 513.544899 829.96975 514.097399"></polyline>
                <polyline id="Fill-244" fill="#C3E5EB" points="819.03225 513.387399 819.97975 498.807399 811.47225 498.254899 810.52975 512.829899 819.03225 513.387399"></polyline>
                <polyline id="Fill-245" fill="#C3E5EB" points="810.36975 515.269899 809.42475 529.844899 817.92975 530.394899 818.87475 515.819899 810.36975 515.269899"></polyline>
                <polyline id="Fill-246" fill="#C3E5EB" points="821.30725 515.972399 820.36225 530.552399 828.86725 531.107399 829.80975 516.529899 821.30725 515.972399"></polyline>
                <polyline id="Fill-247" fill="#FFFFFE" points="796.10475 531.419899 771.81475 529.844899 774.17975 493.394899 798.46725 494.974899 796.10475 531.419899"></polyline>
                <polyline id="Fill-248" fill="#C3E5EB" points="794.94225 511.819899 795.88475 497.244899 787.38225 496.694899 786.43725 511.272399 794.94225 511.819899"></polyline>
                <polyline id="Fill-249" fill="#C3E5EB" points="784.00475 511.112399 784.94975 496.537399 776.44975 495.984899 775.50475 510.559899 784.00475 511.112399"></polyline>
                <polyline id="Fill-250" fill="#C3E5EB" points="775.34725 512.994899 774.39975 527.574899 782.90225 528.124899 783.84725 513.544899 775.34725 512.994899"></polyline>
                <polyline id="Fill-251" fill="#C3E5EB" points="786.27725 513.704899 785.33225 528.279899 793.83725 528.834899 794.78475 514.257399 786.27725 513.704899"></polyline>
                <polyline id="Fill-252" fill="#AE243C" points="282.26975 426.669899 294.94975 426.894899 295.46475 397.897399 282.78225 397.669899 282.26975 426.669899"></polyline>
                <polyline id="Fill-253" fill="#AE243C" points="304.90475 444.197399 263.14725 400.929899 219.87425 442.684899 217.66975 566.999899 302.69975 568.509899 304.90475 444.197399"></polyline>
                <polyline id="Fill-254" fill="#2D2E2C" points="304.90475 444.197399 263.14725 400.929899 219.87425 442.684899 220.1075 429.547399 263.37975 387.784899 305.13725 431.057399 304.90475 444.197399"></polyline>
                <polyline id="Fill-255" fill="#FFFFFE" points="232.544 481.172399 256.43725 481.597399 257.07225 445.759899 233.18 445.337399 232.544 481.172399"></polyline>
                <polyline id="Fill-256" fill="#C3E5EB" points="235.27725 462.099899 235.53225 447.767399 243.88975 447.919899 243.63475 462.249899 235.27725 462.099899"></polyline>
                <polyline id="Fill-257" fill="#C3E5EB" points="246.02475 462.292399 246.27975 447.957399 254.64475 448.109899 254.38975 462.439899 246.02475 462.292399"></polyline>
                <polyline id="Fill-258" fill="#C3E5EB" points="254.34725 464.829899 254.09475 479.172399 245.72725 479.022399 245.98475 464.684899 254.34725 464.829899"></polyline>
                <polyline id="Fill-259" fill="#C3E5EB" points="243.59475 464.642399 243.33975 478.979899 234.9805 478.832399 235.2345 464.492399 243.59475 464.642399"></polyline>
                <polyline id="Fill-260" fill="#FFFFFE" points="231.626 532.844899 255.51975 533.264899 256.15475 497.427399 232.26075 497.004899 231.626 532.844899"></polyline>
                <polyline id="Fill-261" fill="#C3E5EB" points="234.3605 513.767399 234.61425 499.437399 242.97375 499.584899 242.71975 513.912399 234.3605 513.767399"></polyline>
                <polyline id="Fill-262" fill="#C3E5EB" points="245.10975 513.959899 245.36475 499.622399 253.72725 499.772399 253.47725 514.107399 245.10975 513.959899"></polyline>
                <polyline id="Fill-263" fill="#C3E5EB" points="253.43225 516.499899 253.17975 530.837399 244.81225 530.689899 245.06475 516.354899 253.43225 516.499899"></polyline>
                <polyline id="Fill-264" fill="#C3E5EB" points="242.67825 516.307399 242.42325 530.647399 234.06375 530.502399 234.319 516.157399 242.67825 516.307399"></polyline>
                <polyline id="Fill-265" fill="#FFFFFE" points="266.98975 481.782399 290.88225 482.204899 291.51725 446.372399 267.62475 445.949899 266.98975 481.782399"></polyline>
                <polyline id="Fill-266" fill="#C3E5EB" points="269.71475 462.714899 269.96975 448.377399 278.33225 448.524899 278.07975 462.859899 269.71475 462.714899"></polyline>
                <polyline id="Fill-267" fill="#C3E5EB" points="280.46725 462.904899 280.72225 448.569899 289.08225 448.719899 288.82725 463.052399 280.46725 462.904899"></polyline>
                <polyline id="Fill-268" fill="#C3E5EB" points="288.78475 465.442399 288.52975 479.784899 280.16975 479.632399 280.42725 465.297399 288.78475 465.442399"></polyline>
                <polyline id="Fill-269" fill="#C3E5EB" points="278.03475 465.252399 277.77975 479.589899 269.41975 479.447399 269.67225 465.104899 278.03475 465.252399"></polyline>
                <polyline id="Fill-270" fill="#FFFFFE" points="266.07475 533.452399 289.96475 533.879899 290.59975 498.039899 266.70975 497.614899 266.07475 533.452399"></polyline>
                <polyline id="Fill-271" fill="#C3E5EB" points="268.79975 514.379899 269.05475 500.042399 277.41225 500.192399 277.15975 514.524899 268.79975 514.379899"></polyline>
                <polyline id="Fill-272" fill="#C3E5EB" points="279.55225 514.569899 279.80475 500.232399 288.16475 500.384899 287.90975 514.719899 279.55225 514.569899"></polyline>
                <polyline id="Fill-273" fill="#C3E5EB" points="287.86975 517.107399 287.61475 531.449899 279.25225 531.297399 279.50975 516.962399 287.86975 517.107399"></polyline>
                <polyline id="Fill-274" fill="#C3E5EB" points="277.11975 516.917399 276.86475 531.257399 268.50225 531.109899 268.75725 516.772399 277.11975 516.917399"></polyline>
                <polyline id="Fill-275" fill="#78A695" points="97.638 495.249899 218.55975 487.049899 223.3265 557.347399 102.40375 565.544899 97.638 495.249899"></polyline>
                <polyline id="Fill-276" fill="#2D2E2C" points="228.02 489.754899 88.313 499.227399 98.07375 460.852399 213.16525 453.049899 228.02 489.754899"></polyline>
                <polyline id="Fill-277" fill="#78A695" points="114.458 447.174899 126.5735 446.354899 128.1995 470.354899 116.08525 471.169899 114.458 447.174899"></polyline>
                <polyline id="Fill-278" fill="#FFFFFE" points="208.39125 536.272399 183.772 537.944899 181.2695 501.014899 205.8875 499.349899 208.39125 536.272399"></polyline>
                <polyline id="Fill-279" fill="#C3E5EB" points="204.59725 516.744899 203.5925 501.977399 194.97575 502.562399 195.97675 517.329899 204.59725 516.744899"></polyline>
                <polyline id="Fill-280" fill="#C3E5EB" points="193.51575 517.499899 192.51475 502.727399 183.899 503.314899 184.90125 518.077399 193.51575 517.499899"></polyline>
                <polyline id="Fill-281" fill="#C3E5EB" points="185.06725 520.544899 186.0695 535.312399 194.68525 534.729899 193.68175 519.964899 185.06725 520.544899"></polyline>
                <polyline id="Fill-282" fill="#C3E5EB" points="196.14275 519.797399 197.14375 534.567399 205.76425 533.979899 204.76325 519.212399 196.14275 519.797399"></polyline>
                <polyline id="Fill-283" fill="#FFFFFE" points="172.9005 538.679899 148.28 540.349899 145.77525 503.422399 170.39675 501.754899 172.9005 538.679899"></polyline>
                <polyline id="Fill-284" fill="#C3E5EB" points="169.10175 519.152399 168.10075 504.382399 159.48375 504.964899 160.48475 519.734899 169.10175 519.152399"></polyline>
                <polyline id="Fill-285" fill="#C3E5EB" points="158.0225 519.902399 157.02025 505.134899 148.40225 505.717399 149.40425 520.487399 158.0225 519.902399"></polyline>
                <polyline id="Fill-286" fill="#C3E5EB" points="149.5715 522.952399 150.57375 537.722399 159.192 537.137399 158.1885 522.367399 149.5715 522.952399"></polyline>
                <polyline id="Fill-287" fill="#C3E5EB" points="160.65075 522.202399 161.65425 536.972399 170.271 536.384899 169.26775 521.617399 160.65075 522.202399"></polyline>
                <polyline id="Fill-288" fill="#FFFFFE" points="137.40475 541.087399 112.7955 542.749899 110.2905 505.829899 134.9025 504.159899 137.40475 541.087399"></polyline>
                <polyline id="Fill-289" fill="#C3E5EB" points="133.61325 521.559899 132.61125 506.789899 123.99425 507.369899 124.99775 522.139899 133.61325 521.559899"></polyline>
                <polyline id="Fill-290" fill="#C3E5EB" points="122.53175 522.309899 121.53075 507.539899 112.915 508.119899 113.916 522.894899 122.53175 522.309899"></polyline>
                <polyline id="Fill-291" fill="#C3E5EB" points="114.0845 525.359899 115.0855 540.129899 123.70125 539.544899 122.70025 524.772399 114.0845 525.359899"></polyline>
                <polyline id="Fill-292" fill="#C3E5EB" points="125.16125 524.607399 126.1645 539.377399 134.78025 538.794899 133.77925 524.022399 125.16125 524.607399"></polyline>
                <polyline id="Fill-293" fill="#AE243C" points="359.31225 478.714899 476.64225 481.922399 474.60225 556.602399 357.26975 553.394899 359.31225 478.714899"></polyline>
                <polyline id="Fill-294" fill="#2D2E2C" points="485.48225 486.482399 349.92475 482.777399 362.86475 446.674899 474.53475 449.727399 485.48225 486.482399"></polyline>
                <polyline id="Fill-295" fill="#AE243C" points="379.91725 434.989899 391.67475 435.309899 391.03725 458.602399 379.28225 458.282399 379.91725 434.989899"></polyline>
                <polyline id="Fill-296" fill="#FFFFFE" points="462.28475 529.522399 438.39975 528.869899 439.38225 493.039899 463.26725 493.689899 462.28475 529.522399"></polyline>
                <polyline id="Fill-297" fill="#C3E5EB" points="460.41975 510.349899 460.80975 496.019899 452.45475 495.787399 452.05975 510.119899 460.41975 510.349899"></polyline>
                <polyline id="Fill-298" fill="#C3E5EB" points="449.67475 510.052399 450.06475 495.722399 441.70225 495.494899 441.31225 509.822399 449.67475 510.052399"></polyline>
                <polyline id="Fill-299" fill="#C3E5EB" points="441.24475 512.214899 440.85225 526.549899 449.21725 526.777399 449.60975 512.439899 441.24475 512.214899"></polyline>
                <polyline id="Fill-300" fill="#C3E5EB" points="451.99475 512.507399 451.60225 526.842399 459.96225 527.074899 460.35475 512.732399 451.99475 512.507399"></polyline>
                <polyline id="Fill-301" fill="#FFFFFE" points="427.84975 528.579899 403.96475 527.927399 404.94475 492.094899 428.82975 492.752399 427.84975 528.579899"></polyline>
                <polyline id="Fill-302" fill="#C3E5EB" points="425.98475 509.407399 426.37475 495.074899 418.01475 494.844899 417.62225 509.172399 425.98475 509.407399"></polyline>
                <polyline id="Fill-303" fill="#C3E5EB" points="415.23475 509.114899 415.62725 494.782399 407.26475 494.557399 406.87475 508.882399 415.23475 509.114899"></polyline>
                <polyline id="Fill-304" fill="#C3E5EB" points="406.80975 511.272399 406.41725 525.607399 414.77725 525.832399 415.16975 511.499899 406.80975 511.272399"></polyline>
                <polyline id="Fill-305" fill="#C3E5EB" points="417.55725 511.567399 417.16475 525.897399 425.52725 526.132399 425.91725 511.794899 417.55725 511.567399"></polyline>
                <polyline id="Fill-306" fill="#FFFFFE" points="393.41475 527.639899 369.52475 526.984899 370.50475 491.154899 394.39475 491.807399 393.41475 527.639899"></polyline>
                <polyline id="Fill-307" fill="#C3E5EB" points="391.54975 508.462399 391.93975 494.137399 383.57725 493.904899 383.18725 508.234899 391.54975 508.462399"></polyline>
                <polyline id="Fill-308" fill="#C3E5EB" points="380.80225 508.169899 381.19475 493.837399 372.82975 493.612399 372.43725 507.937399 380.80225 508.169899"></polyline>
                <polyline id="Fill-309" fill="#C3E5EB" points="372.36975 510.329899 371.97725 524.664899 380.34475 524.892399 380.73725 510.557399 372.36975 510.329899"></polyline>
                <polyline id="Fill-310" fill="#C3E5EB" points="383.12225 510.624899 382.72975 524.959899 391.09475 525.189899 391.48475 510.852399 383.12225 510.624899"></polyline>
                <path d="M564.41975,457.479899 C567.06225,438.947399 584.23225,426.069899 602.76475,428.704899 C621.29725,431.349899 634.17975,448.519899 631.53475,467.054899 C628.89225,485.584899 611.72725,498.464899 593.19225,495.827399 C574.65975,493.177399 561.77475,476.009899 564.41975,457.479899" id="Fill-311" fill="#BEC935"></path>
                <polyline id="Fill-312" fill="#664628" points="622.85725 470.857399 596.11475 485.984899 601.09475 441.349899 595.87725 470.967399 581.29975 449.672399 595.34725 473.967399 581.97975 549.807399 588.97225 549.964899 595.74725 489.259899 622.85725 470.857399"></polyline>
                <path d="M320.93225,471.477399 C318.58225,452.907399 331.73725,435.947399 350.31225,433.594899 C368.88225,431.247399 385.84225,444.397399 388.18975,462.972399 C390.53975,481.547399 377.38725,498.504899 358.81475,500.849899 C340.24225,503.202399 323.27725,490.044899 320.93225,471.477399" id="Fill-313" fill="#BEC935"></path>
                <polyline id="Fill-314" fill="#664628" points="380.82725 468.937399 359.03225 490.589899 352.04225 446.227399 354.83475 476.172399 335.14725 459.484899 355.11475 479.207399 362.26725 555.882399 369.05475 554.187399 359.54475 493.844899 380.82725 468.937399"></polyline>
                <path d="M12.78825,484.062399 C10.4395,465.487399 23.59625,448.529899 42.168,446.179899 C60.7385,443.827399 77.7015,456.982399 80.049,475.557399 C82.3975,494.127399 69.24575,511.087399 50.67275,513.437399 C32.101,515.787399 15.13325,502.632399 12.78825,484.062399" id="Fill-315" fill="#BEC935"></path>
                <polyline id="Fill-316" fill="#664628" points="72.6855 481.519899 50.88875 503.177399 43.899 458.812399 46.69325 488.757399 27.0045 472.069899 46.974 491.792399 54.126 568.467399 60.912 566.772399 51.40025 506.429899 72.6855 481.519899"></polyline>
            </g>
            <g id="Sun" transform="translate(581.389750, 68.777399)">
                <path d="M200.55,147.5855 L0,147.5855 C0,147.5855 44.8925,144.9805 100.2725,144.9805 C155.655,144.9805 200.55,147.5855 200.55,147.5855" id="Fill-25" fill="#A6D4D1"></path>
                <path d="M200.55,147.5855 L0,147.5855 C0,147.5855 44.8925,149.32375 100.2725,149.32375 C155.655,149.32375 200.55,147.5855 200.55,147.5855" id="Fill-26" fill="#DEF0EE"></path>
                <path d="M195.5275,85.09525 C201.7125,38.17375 168.57,0 121.645,0 C74.7275,0 31.5225,38.17375 25.3375,85.09525 C22.085,109.77775 29.7275,132.0275 44.5175,147.5855 L159.8775,147.5855 C178.7725,132.0275 192.275,109.77775 195.5275,85.09525" id="Fill-27" fill="#90CBC9"></path>
                <path d="M187.29,85.09525 C187.29,38.17375 149.1225,0 102.1975,0 C55.275,0 17.1025,38.17375 17.1025,85.09525 C17.1025,109.77775 27.675,132.0275 44.5175,147.5855 L159.8775,147.5855 C176.7225,132.0275 187.29,109.77775 187.29,85.09525" id="Fill-28" fill="#FFFFFE"></path>
                <path d="M174.8675,85.09525 C174.8675,44.9585 142.335,12.423 102.1975,12.423 C62.0625,12.423 29.5275,44.9585 29.5275,85.09525 C29.5275,111.67975 43.81,134.917 65.11,147.5855 L139.2875,147.5855 C160.5875,134.917 174.8675,111.67975 174.8675,85.09525" id="Fill-29" fill="#F8CC24"></path>
                <path d="M37.5875,51.84575 C32.4475,61.8115 29.5275,73.108 29.5275,85.09525 C29.5275,86.272 29.56,87.4425 29.615,88.6095 C68.6975,61.6505 86.2225,72.02625 102.1975,85.09525 C94.8975,65.791 84.9125,48.0395 37.5875,51.84575" id="Fill-30" fill="#FCEB24"></path>
                <path d="M64.58,81.27075 C55.0325,84.66425 44.2475,92.66225 32.3075,104.98775 C35.84,117.42425 42.5925,128.49725 51.6225,137.25225 C55.8,120.61525 61.1375,108.302 67.7075,100.59075 C77.385,88.63775 89.79,86.87 102.1975,85.09525 C90.57,80.42725 78.9375,75.75675 64.58,81.27075" id="Fill-31" fill="#FCEB24"></path>
                <path d="M102.1975,85.09525 C83.1875,92.2815 65.7025,102.1045 68.805,147.5855 L99.29,147.5855 C80.66,115.4395 90.315,99.6215 102.1975,85.09525" id="Fill-33" fill="#FCEB24"></path>
                <path d="M106.02,47.478 C102.6275,37.92975 94.63,27.146 82.305,15.20275 C69.8675,18.7365 58.795,25.49075 50.0425,34.51775 C66.68,38.69625 78.99,44.03325 86.7025,50.6055 C98.655,60.28325 100.4225,72.688 102.1975,85.09525 C106.865,73.46425 111.535,61.836 106.02,47.478" id="Fill-34" fill="#FCEB24"></path>
                <path d="M174.78,81.582 C135.695,108.54125 118.175,98.1615 102.1975,85.09525 C109.4975,104.397 119.485,122.1485 166.81,118.34475 C171.9475,108.3765 174.8675,97.08 174.8675,85.09525 C174.8675,83.916 174.8375,82.7465 174.78,81.582" id="Fill-35" fill="#FCEB24"></path>
                <path d="M139.815,88.9185 C149.365,85.525 160.1475,77.52575 172.09,65.2015 C168.5575,52.76375 161.8025,41.692 152.775,32.93575 C148.5975,49.57275 143.2575,61.88725 136.685,69.59725 C127.0075,81.55275 114.6025,83.3215 102.1975,85.09525 C113.8275,89.76075 125.455,94.43125 139.815,88.9185" id="Fill-36" fill="#FCEB24"></path>
                <path d="M131.5,61.19875 C135.8525,52.047 137.8225,38.767 137.5525,21.60775 C126.26,15.31 113.655,12.257 101.08,12.45125 C109.8875,27.16925 114.82,39.65075 115.6275,49.751 C117.2375,65.0465 109.7175,75.0695 102.1975,85.09525 C113.72,80.171 125.2475,75.2515 131.5,61.19875" id="Fill-37" fill="#FCEB24"></path>
                <path d="M154.355,135.6715 C137.7175,131.49175 125.405,126.1535 117.695,119.585 C105.7425,109.90725 103.97,97.5 102.1975,85.09525 C97.5325,96.72475 92.8625,108.3545 98.375,122.71125 C101.05,130.24525 106.6075,138.551 114.8825,147.5855 L139.25,147.5855 C144.805,144.2895 149.885,140.28075 154.355,135.6715" id="Fill-32" fill="#FCEB24"></path>
            </g>
        </g>
    </g>
</svg>