<?xml version="1.0" encoding="UTF-8"?>
<svg width="512px" height="216px" viewBox="0 0 512 216" version="1.1" xmlns="http://www.w3.org/2000/svg" xmlns:xlink="http://www.w3.org/1999/xlink">
    <title>featured-image</title>
    <g id="Page-1" stroke="none" stroke-width="1" fill="none" fill-rule="evenodd">
        <g id="featured-image" fill-rule="nonzero">
            <rect id="background" fill-opacity="0.5" fill="#FFFFFF" x="0" y="0" width="512" height="216"></rect>
            <g id="life" transform="translate(199.000000, 6.000000)">
                <path d="M89.1145033,20.3264938 C86.3125403,37.2246351 85.8376674,50.3106928 85.4159126,69.1668477 C85.0334646,86.2462869 86.3640648,108.0727 89.8289376,118.458633 C91.0772051,122.198802 85.1115474,124.471064 84.305751,121.906912 C80.3511323,109.321236 78.6216171,87.8652738 79.068869,68.9716508 C79.5017788,49.6157188 80.0239263,36.16344 82.869446,19 L89.1145033,20.3264938" id="Fill-66" fill="#2C1C1C"></path>
                <path d="M33.4316088,49.0065031 C34.0393923,52.0309781 34.3779722,55.3887171 34.3779722,58.924071 C34.3779722,72.2213444 29.5921954,83 23.6886896,83 C17.7857769,83 13,72.2213444 13,58.924071 C13,43.3334933 22.6741358,49.0065031 33.4316088,49.0065031 Z M82.5683911,49.0065031 C81.9606076,52.0309781 81.6220276,55.3887171 81.6220276,58.924071 C81.6220276,72.2213444 86.4078047,83 92.3113102,83 C98.2142229,83 103,72.2213444 103,58.924071 C103,43.3334933 93.3258642,49.0065031 82.5683911,49.0065031 L82.5683911,49.0065031 Z" id="Fill-67" fill="#E4874C"></path>
                <path d="M83.2232505,49.1161346 C80.5886878,65.8492183 77.9325393,86.4244494 77.9617085,105.013986 C77.9902946,123.049623 80.5023469,139.125177 88,147.55098 L82.8317997,152.352621 C73.9818621,142.408066 71.0194373,124.649972 70.9885177,105.013986 C70.9581821,85.931897 73.6563338,64.9945479 76.3317333,48 L83.2232505,49.1161346 Z M32.0902124,60.266759 C35.0112169,76.4703643 38.0092281,96.3779394 38.2431652,114.299224 C38.4852696,132.851238 35.708361,149.372888 26.8129193,158 L22,152.835049 C29.2432977,145.810072 31.4887434,131.141301 31.2699743,114.383202 C31.0430379,96.9955657 28.0969479,77.4751232 25.2261144,61.5508501 L32.0902124,60.266759 L32.0902124,60.266759 Z" id="Fill-68" fill="#2C1C1C"></path>
                <path d="M33.3190752,58 C35.7443792,81.1837332 32.2450978,139.886958 13.7557569,156 L9,150.691051 C24.945173,136.795162 28.2799659,78.8829713 26.1716324,58.7228422 L33.3190752,58" id="Fill-69" fill="#2C1C1C"></path>
                <path d="M109.922581,164.742827 C109.922581,139.480095 86.9000743,119 58.5000318,119 C30.0993953,119 7.07688927,139.480095 7.07688927,164.742827 C7.07688927,166.70794 6.95580566,189.308843 7.01753457,191.479544 C7.19856645,197.816718 8.94596919,204 19.8535848,204 L97.1156143,204 C108.055281,204 109.802684,197.828139 109.982529,191.485555 C110.044258,189.315455 109.922581,166.712749 109.922581,164.742827" id="Fill-70" fill="#E4874C"></path>
                <path d="M79,72 C78.3096968,88.8652792 77.6187978,105.729962 76.9284946,122.59524 C76.6226867,130.056893 68.2991086,138.125673 58.4566255,137.998516 C48.8454353,137.873747 39.349296,129.661692 39.0601794,122.555243 C38.3734529,105.703694 37.6867264,88.8515488 37,72 C51.0003977,72 65.0001986,72 79,72" id="Fill-71" fill="#E4874C"></path>
                <path d="M94.4146344,21 C96.7181275,29.0332697 98,37.9517662 98,47.3433297 C98,54.3021458 97.3208781,61.0019577 96.0513427,67.2724615 C93.7478497,78.6526808 91.1611933,90.927588 85.4996881,98.488973 C71.6011838,117.051532 43.4164407,116.137922 29.7347148,97.8964566 C24.1930547,90.5077409 21.457767,79.1393483 19.1155007,68.0749014 C17.7396321,61.5737776 17,54.5995867 17,47.3433297 C17,37.9517662 18.2830473,29.0332697 20.5859528,21 L94.4146344,21" id="Fill-72" fill="#E5915A"></path>
                <path d="M91.2092268,130 C85.7474061,147.096247 73.1594584,159.063799 58.5000318,159.063799 C43.8406048,159.063799 31.2520639,147.096247 25.7902432,130 C14.3626802,138.32764 7.07688927,150.927702 7.07688927,165.032657 C7.07688927,166.982099 6.95580566,189.417679 7.01753457,191.571193 C7.19856645,197.862274 8.94596919,204 19.8535848,204 L97.1156143,204 C108.055281,204 109.802684,197.873611 109.982529,191.578354 C110.044258,189.424242 109.922581,166.987469 109.922581,165.032657 C109.922581,150.927702 102.636196,138.328237 91.2092268,130 Z" id="Fill-73" fill="#136E75"></path>
                <path d="M90.920257,130 C85.5902225,147.752492 73.306005,160.179422 59.0002896,160.179422 C44.6945744,160.179422 32.4097774,147.752492 27.0797428,130 C26.0157053,130.825323 24.988159,131.69154 24,132.594933 C29.9880349,151.693841 43.4063765,165 59.0002896,165 C74.5942025,165 88.0119651,151.693841 94,132.595553 C93.0124203,131.69154 91.984874,130.825323 90.920257,130 Z" id="Fill-74" fill="#EDF6F5"></path>
                <path d="M57.3920806,116 C42.0496687,114.457524 31.263629,106.257147 23.7275393,93.068861 C20.4119701,87.2661866 21.0800949,78.5870043 21.0150721,78.3945017 C20.8713059,77.965355 22.4539265,86.1099433 26.1214544,91.4528175 C32.7496102,101.110454 38.3654377,105.969619 48.6682799,107.24725 C51.946267,107.6531 52.9508404,106.192776 53.9971713,102.695231 C54.5030375,101.00562 55.5284899,101.10555 57.4481553,100.992745 C59.3672246,101.10555 60.2817199,101.00562 60.7875861,102.695231 C61.8339175,106.192776 62.8384904,107.6531 66.1158814,107.24725 C76.4193199,105.969619 81.8108482,100.765911 88.4396011,91.1082745 C92.1071288,85.764787 94.1371542,76.5859552 93.9927918,77.0144887 C93.9283654,77.207605 94.3727875,87.2661866 91.0572185,93.068861 C83.5211287,106.257147 72.7350892,114.457524 57.3920806,116" id="Fill-75" fill="#413333"></path>
                <path d="M26.9811567,45.3928648 L26.9846896,48.0451071 C27.0459259,82.2787463 27.6765432,129.78196 8.20807555,144.709186 C6.02535081,146.382967 2.27285434,140.349712 4.09817039,138.876045 C17.2563438,128.256323 19.5232686,95.6110429 19.8865654,66.1801131 C17.9670395,86.8676037 16.4702803,110.44329 6.14429078,128.761086 C5.19807052,130.439644 -0.923215167,126.940357 0.11898141,125.028234 C10.2212225,106.492405 11.401201,83.7422585 13.0852023,62.8916908 C13.9560547,52.114268 14.0337778,41.2950309 13.0057127,31.1525933 C31.1128479,29.2721295 10.4897206,45.3928648 26.9811567,45.3928648" id="Fill-76" fill="#413333"></path>
                <path d="M98.9099784,30 C99.9047649,42.6515153 101.367518,58.5599386 103.825629,74.2393697 C106.158606,89.1238542 109.38009,103.734853 113.92891,114.958432 C114.707711,116.879354 108.856128,120.707556 107.681926,117.820239 C102.858269,105.964857 99.4870803,90.7641734 97.073538,75.3665327 C96.6432827,72.6227806 96.2433111,69.8713164 95.8707664,67.129344 C95.9867582,75.3428032 96.3844442,83.616773 97.2215274,91.4778456 C99.044826,108.477838 103.10568,123.444783 110.305738,131.354501 C111.950765,133.160929 107.886483,139.037601 105.367233,136.271898 C96.935262,127.013144 92.401299,110.614701 90.4322962,92.246096 C88.4198683,73.3536568 88.8718361,52.3249473 89.7117764,35.2015608 L92.4864361,35.3427529 C92.3510168,33.7196381 92.2235976,32.137457 92.1030346,30.6021424 L98.9099784,30" id="Fill-77" fill="#413333"></path>
                <path d="M11.568734,67 C-7.12868185,62.3076333 5.629333,30.3485858 15.6312631,18.4893923 C30.4111139,0.966976929 60.4204393,-4.21290071 79.3688906,3.42834144 C97.1387724,10.5939778 104.026922,27.7896001 99.7864289,48.0864821 C69.0811573,39.4720039 37.7924947,54.5009109 11.568734,67 Z" id="Fill-78" fill="#000000"></path>
                <path d="M11.5679867,67 C2.18055038,64.6579558 0.723228962,55.4844568 2.86413017,45.4375731 C36.3159325,21.2467078 58.0956098,11.4347384 97.3655013,20.1064553 C101.179995,27.9781612 102.000291,37.6682354 99.7869061,48.1985578 C69.0812086,39.6351264 37.7921113,54.5749772 11.5679867,67 Z" id="Fill-79" fill="#EDF6F5"></path>
                <path d="M13.4382547,68 C9.92567997,67.0919238 7.52140756,65.1947258 6,62.6295181 C40.594022,36.5310756 62.5334503,25.9436068 102.978223,35.4185441 C103.100974,39.5776437 102.704983,43.9590041 101.785529,48.4914035 C71.0351559,39.6058868 39.7005344,55.1076508 13.4382547,68 Z" id="Fill-80" fill="#17A1AC"></path>
                <path d="M109.935872,105.02561 C110.338315,104.935521 110.758832,105.084339 110.900409,105.452677 C111.584201,107.239631 112.268594,109.026584 112.952988,110.813538 C113.094566,111.182446 112.908406,111.650567 112.501746,111.726401 C110.071426,112.177416 107.979085,112.96997 106.059047,113.937 C105.693354,114.12117 105.235485,113.878272 105.09451,113.509934 C104.410116,111.72298 103.725723,109.936026 103.041329,108.148503 C102.900353,107.780164 103.13712,107.437484 103.492571,107.23621 C105.53792,106.077028 107.729064,105.518818 109.935872,105.02561 Z" id="Fill-82" fill="#EDF6F5"></path>
                <path d="M21.4719691,117.697883 C21.8325634,117.847233 22.0750223,118.210712 21.9788263,118.610179 C21.5141603,120.547534 21.0494943,122.484289 20.5842658,124.421044 C20.4886324,124.820511 20.0909098,125.107216 19.7286279,124.961464 C17.7968326,124.183523 15.8397225,123.444569 13.5298939,123.270027 C13.1439848,123.241237 12.9268407,122.757198 13.0224741,122.357731 C13.4877027,120.420976 13.9523686,118.484221 14.4170346,116.546866 C14.5132306,116.147399 14.8884512,115.962061 15.2726725,116.006446 C17.4975562,116.261361 19.5289228,116.893551 21.4719691,117.697883 Z" id="Fill-83" fill="#17A1AC"></path>
                <path d="M14.4356426,108.821432 C14.8283662,108.977306 15.0872912,109.341803 14.9726952,109.734155 C14.4176788,111.637244 13.8626626,113.540332 13.3076463,115.442828 C13.1930504,115.83518 12.7489134,116.10959 12.3537121,115.957272 C10.243907,115.144711 8.10622704,114.370081 5.56653209,114.145456 C5.14283661,114.107525 4.9148835,113.625085 5.02947951,113.232139 C5.58449575,111.329051 6.13951204,109.426556 6.69452832,107.52406 C6.80912428,107.131115 7.22600594,106.956867 7.64846251,107.009023 C10.0915253,107.311881 12.3140681,107.9822 14.4356426,108.821432 Z" id="Fill-84" fill="#EDF6F5"></path>
            </g>
        </g>
    </g>
</svg>