<?xml version="1.0" encoding="UTF-8"?>
<svg width="512px" height="216px" viewBox="0 0 512 216" version="1.1" xmlns="http://www.w3.org/2000/svg" xmlns:xlink="http://www.w3.org/1999/xlink">
    <title>featured-image</title>
    <defs>
        <linearGradient x1="50%" y1="0%" x2="50%" y2="100%" id="linearGradient-1">
            <stop stop-color="#2DBBC1" offset="0%"></stop>
            <stop stop-color="#14858D" offset="100%"></stop>
        </linearGradient>
    </defs>
    <g id="Page-1" stroke="none" stroke-width="1" fill="none" fill-rule="evenodd">
        <g id="featured-image" fill-rule="nonzero">
            <rect id="background" fill="#FFFFFF" x="0" y="0" width="512" height="216"></rect>
            <path d="M244.924183,42 C244.607533,42.2080011 244.384016,42.3197629 244.014591,42.5619135 C220.436586,57.6156071 192.928396,86.9872292 190.109591,123.601637 C188.768485,141.017851 199.904009,153.075707 214.302269,153.339589 C223.494431,153.507232 230.886035,150.241304 234.890726,144.004375 C238.218655,138.81366 239.069263,130.816482 239.609431,134.513935 C241.549688,148.611444 235.645098,162.162563 232.450658,174 C236.011418,172.705426 240.487979,172.053482 244.97075,172.03796 L245.045255,172.03796 C249.524921,172.053482 253.989065,172.705426 257.549825,174 C254.355385,162.162563 248.463212,148.611444 250.400365,134.513935 C250.937428,130.816482 251.784933,138.81366 255.109757,144.004375 C259.111344,150.241304 266.502947,153.507232 275.695109,153.339589 C290.09337,153.075707 301.228893,141.017851 299.890892,123.601637 C297.065878,86.9872292 269.560792,57.6156071 246.001414,42.5619135 C245.743748,42.3694348 245.52023,42.2545685 245.150805,42 L244.924183,42 Z" id="spade" fill="url(#linearGradient-1)"></path>
            <g id="javascript" transform="translate(258.000000, 70.000000)">
                <rect id="Rectangle" fill="#F1DD3F" x="0" y="0" width="64" height="64"></rect>
                <path d="M28.954415,37.1975138 C28.9304229,40.0177474 27.1094219,42.1813149 24.3959144,42.7767247 C21.0946004,43.5117986 18.0979861,42.4042873 16.4305345,39.8609316 C15.8115382,38.9151365 15.8115382,38.9151365 16.7496296,38.3270774 C17.6397368,37.7708715 18.5346424,37.2171158 19.463137,36.6388577 C19.7390463,37.0553996 19.986165,37.437638 20.2452797,37.8125257 C20.7373597,38.5658987 21.5933842,38.9842148 22.4765458,38.9028853 C23.7865149,38.8563306 24.5422663,38.1090055 24.573456,36.7540193 C24.6022466,35.4717237 24.6174416,34.1886114 24.6190411,32.9046823 C24.6190411,29.2489147 24.6190411,25.5931472 24.6190411,21.9373797 C24.6190411,20.8568211 24.573456,21.0111866 25.5091483,21.0038358 C26.5048208,21.0038358 27.5004932,21.0160871 28.4937665,21.0038358 C28.8896363,21.0038358 29,21.1434999 29,21.5330891 C28.9832055,26.7472132 29.0095968,31.9735887 28.954415,37.1975138 Z" id="Path" fill="#333333"></path>
                <path d="M46.9490416,40.1359501 C45.6298579,42.0177622 43.6232835,42.7179713 41.3892636,42.9440805 C41.0253508,42.9805497 40.6563838,42.9805497 40.219183,43 C36.9692401,42.9319241 34.1716609,41.8864729 32.2939722,39.0929302 C31.8694074,38.4607969 31.864353,38.4535031 32.5466894,38.0669293 C33.4008735,37.5806729 34.2803293,37.1333171 35.1168231,36.6227479 C35.556551,36.3553069 35.7966324,36.4063638 36.0872571,36.8269756 C37.262392,38.5288728 38.9429613,39.2023379 41.0304052,38.9227405 C42.013475,38.7914512 42.8322787,38.3732708 43.1835556,37.4129145 C43.4736549,36.6104183 43.1616088,35.720808 42.425404,35.251505 C41.7923384,34.860522 41.13393,34.5088894 40.45421,34.19876 C38.968233,33.4693754 37.3836963,32.8810052 36.0063876,31.9960187 C33.3112563,30.2074778 32.4569259,26.7487208 34.0276121,23.9849452 C35.0890243,22.1639152 36.8075011,21.213284 38.9202167,21.0358004 C40.0904164,20.9496401 41.2673769,21.0191818 42.4178225,21.2424594 C44.2095873,21.575545 45.4529559,22.7376977 46.4208627,24.1964667 C46.5005313,24.2716479 46.5350828,24.3805962 46.5126077,24.4857592 C46.4901326,24.5909221 46.4137046,24.6779181 46.3096671,24.716761 C45.3164886,25.3245815 44.3258372,25.9324019 43.3452946,26.5596726 C42.999072,26.7809193 42.8575504,26.5815542 42.6958114,26.3432885 C41.9932576,25.3099938 41.0405139,24.7726805 39.718803,24.9161261 C38.9151624,25.0036523 38.306114,25.3561881 38.0331794,26.0904352 C37.7179152,26.8003377 37.90569,27.6244921 38.5007062,28.1424371 C38.8560267,28.4484001 39.2562434,28.7023567 39.688477,28.8961344 C40.9293183,29.4747795 42.1929042,30.0023676 43.4387999,30.5737188 C43.9190529,30.7972848 44.3841374,31.0498312 44.8312716,31.3298475 C47.9877092,33.2748729 48.9631975,37.2646063 46.9490416,40.1359501 Z" id="Path" fill="#333333"></path>
            </g>
        </g>
    </g>
</svg>