<?xml version="1.0" encoding="UTF-8"?>
<svg width="512px" height="216px" viewBox="0 0 512 216" version="1.1" xmlns="http://www.w3.org/2000/svg" xmlns:xlink="http://www.w3.org/1999/xlink">
    <title>featured-image</title>
    <g id="Page-1" stroke="none" stroke-width="1" fill="none" fill-rule="evenodd">
        <g id="featured-image" fill-rule="nonzero">
            <rect id="background" fill-opacity="0.5" fill="#FFFFFF" x="0" y="0" width="512" height="216"></rect>
            <g id="balance" transform="translate(372.000000, 3.000000)">
                <path d="M70.7302586,80 C71.8989126,86.4260573 74.3123328,93.6891625 72.549763,101.070829 C70.4300047,109.945783 68.8202585,118.292544 68.7171772,125.566913 C89.191395,131.612386 103.921829,148.454705 103.921829,168.28656 C103.921829,170.228605 104.044687,192.518844 103.982359,194.658887 C103.801368,200.913029 102.0364,207 90.990523,207 L12.9789761,207 C1.96486209,207 0.200494267,200.901766 0.0177048031,194.652366 C-0.0446234077,192.512323 0.0776357747,170.223863 0.0776357747,168.28656 C0.0776357747,148.498571 14.7439432,131.688266 35.1468433,125.608409 C35.0149952,118.323963 33.9500218,109.962382 31.4497016,101.070829 C29.3874769,93.7377727 32.100552,86.4260573 33.2692059,80 L70.7302586,80" id="Fill-149" fill="#F5A479"></path>
                <path d="M17,88 C11.1110549,86.6537735 5.57931732,78.5624072 4.18782614,68.7805265 C3.23319846,62.0727339 6.00124538,60.2450867 10.58769,60 C11.1994233,70.2288728 13.4683755,79.7574973 17,88" id="Fill-150" fill="#F49A6A"></path>
                <path d="M87,88 C92.8889452,86.6537735 98.4206826,78.5624072 99.8121738,68.7805265 C100.766802,62.0727339 97.9987546,60.2450867 93.4123099,60 C92.8005769,70.2288728 90.5316247,79.7574973 87,88" id="Fill-151" fill="#F49A6A"></path>
                <path d="M82.8789867,133 C81.2122282,152.91324 67.5875144,168.442962 51.0237301,168.442962 C34.6313667,168.442962 21.1169793,153.23443 19.221857,133.619397 C7.56700288,141.840703 3.07683817,154.416058 3.07683817,168.513093 C3.07683817,170.439059 2.95583504,192.597097 3.0175229,194.724619 C3.19843443,200.93745 1.97891282,207 12.8798701,207 L90.0899423,207 C101.022337,207 99.803408,200.948648 99.9825404,194.731101 C100.044228,192.60358 99.9226318,170.443774 99.9226318,168.513093 C99.9226318,154.057149 95.0486978,141.200679 82.8789867,133 Z" id="Fill-152" fill="#15868F"></path>
                <path d="M94.7815759,141.154666 C93.5408356,139.700445 92.2023479,138.313185 90.7733077,137 L84.0838662,137 C83.8206059,138.415112 83.4967781,139.801185 83.1147816,141.154666 L94.7815759,141.154666 Z M75.3746988,156.282371 C74.1399556,157.794074 72.8062646,159.183704 71.38682,160.436444 L100,160.436444 L100,156.282371 L75.3746988,156.282371 Z M33.6494929,160.436444 C32.2306476,159.183704 30.8975567,157.794074 29.6628134,156.282371 L6,156.282371 L6,160.436444 L33.6494929,160.436444 Z M21.9209314,141.154666 C21.5389346,139.801778 21.2151068,138.415112 20.9518469,137 L15.2260925,137 C13.7976523,138.313185 12.4591642,139.700445 11.2184242,141.154666 L21.9209314,141.154666 Z M6,199 L100,199 L100,194.845926 L6,194.845926 L6,199 Z M6,179.718222 L100,179.718222 L100,175.564148 L6,175.564148 L6,179.718222 Z" id="Fill-153" fill="#EDF6F5"></path>
                <path d="M102.92258,168.210683 C102.92258,157.538794 98.7119571,147.732916 91.6754558,140.000594 C89.1558483,147.612934 87.748548,156.095443 87.748548,165.040062 C87.748548,166.298094 87.7242127,187.70008 87.7052194,207 L90.1156141,207 C101.055281,207 102.803277,200.901099 102.982529,194.634698 C103.044258,192.490461 102.92258,170.156534 102.92258,168.210683 Z M11.3246073,140 C4.28751258,147.732322 0.0768892768,157.538794 0.0768892768,168.210683 C0.0768892768,170.151782 -0.0441943365,192.483928 0.0175345646,194.628165 C0.198566437,200.889813 1.94596918,207 12.8541782,207 L15.294844,207 C15.2764441,187.70008 15.2521087,166.298094 15.2521087,165.040062 C15.2521087,156.095443 13.8442149,147.612934 11.3246073,140 L11.3246073,140 Z" id="Fill-154" fill="#FFBE8E"></path>
                <path d="M84.8821486,33.1494185 C85.8818948,38.7131192 94,46.591905 94,52.6583677 C94,88.1932268 75.6441608,117 53.0002974,117 C35.8107299,117 21.0928726,100.39993 14.9986438,76.8587705 C13.0651667,69.3881443 12,61.2190059 12,52.6583677 C12,43.2088228 15.7515757,34.2352653 18.082929,26.1523998 C30.0251673,26.451677 82.6037263,20.4691071 84.8821486,33.1494185" id="Fill-155" fill="#FBBB91"></path>
                <path d="M27.9841009,126 C28.1094162,125.801531 23.4259869,102.011094 38.7935825,85.3808756 C45.2062408,78.4409188 54.7805585,73.3042672 60.9210013,67.2206152 C69.1168521,59.0998531 73.189295,50.7817989 77.2923172,41.233469 C80.1619738,56.7541428 84.964123,66.7553601 89.8574099,79.1276121 C95.090067,61.4008044 102.837422,20.8252611 75.2315122,16.5714161 C67.9440463,2.20151239 43.2803447,7.84405532 37.872606,9.40413219 C29.5052711,11.8175693 22.8251938,18.2039314 18.1777403,25.6156216 C10.6432415,35.4266145 8.04340172,54.078043 9.304348,72.8101546 C11.305793,102.529353 16.1409194,102.99932 27.9841009,126" id="Fill-156" fill="#2A2A2A"></path>
                <path d="M64.828934,53.3633765 C56.3503459,65.7319438 44.3642551,69.600686 34.2620316,81.7517808 C29.9418225,86.9479334 24.3447568,99.4519746 25.1355306,113 C21.4395228,98.5404941 27.644192,86.3097784 31.2174935,80.488542 C39.3291485,67.2738554 50.5967852,61.2488132 60.0771786,50.0608933 C65.6914349,43.4363183 70.8931135,36.8456119 78,30 C73.5499712,38.6073722 69.616257,46.3799137 64.828934,53.3633765 Z" id="Fill-157" fill="#15868F"></path>
                <path d="M40.7103235,13 C39.3783176,8.83055296 33.1470636,8.61881577 29,6.58258895 C36.4183045,5.15558192 47.0329359,6.3214042 55,10.3970276 C48.8107709,11.9241978 46.8995526,11.4721959 40.7103235,13" id="Fill-158" fill="#2A2A2A"></path>
                <path d="M47.9734969,11.2455518 C47.8531156,6.92614266 39.3196789,3.13980145 36,0 C43.3017517,0.839815837 55.666043,6.81641169 62,13 C55.8166681,12.6171887 54.156236,11.6289866 47.9734969,11.2455518" id="Fill-159" fill="#2A2A2A"></path>
                <path d="M39.1101471,20.7716181 C37.0543459,22.6483707 36.8895221,22.4918744 33.8939262,22.076557 C31.7949711,21.785835 29.7391699,21.2742123 27.6402149,20.9834901 C24.4941799,20.5477079 24.6703913,22.0223852 25.5694297,24.9609054 C26.4528849,27.8458558 27.2889906,30.7223793 28.0178111,33.60432 C28.867702,36.9629728 29.335202,36.4597768 31.5330513,34.127379 C33.195673,32.3631835 34.4789005,30.8397516 36.1079581,29.0442568 C38.6846022,26.202042 38.577317,26.7046361 42.5336853,27.2343161 C44.5067751,27.4985541 46.4810633,27.7621903 48.454153,28.0264285 C50.8156272,28.3430326 51.5624285,28.5302264 50.5764831,25.8204316 C49.5006337,22.8638541 48.3366787,19.4853384 47.26023,16.5287609 C46.8322877,15.3526305 45.7726211,14.2673884 44.2250763,15.6433526 C42.4983232,17.1782208 40.8476887,19.1855877 39.1101471,20.7716181 Z" id="Fill-160" fill="#EDF6F5"></path>
                <path d="M84,50.0709383 C80.0851402,52.267981 83.3021307,63.445309 83.7875758,71 C78.6754177,64.4561522 75.5569813,45.5140645 77.669234,37 C80.819634,42.5725048 80.8496,44.4978349 84,50.0709383" id="Fill-161" fill="#2A2A2A"></path>
            </g>
            <g id="life" transform="translate(199.000000, 6.000000)">
                <path d="M89.1145033,20.3264938 C86.3125403,37.2246351 85.8376674,50.3106928 85.4159126,69.1668477 C85.0334646,86.2462869 86.3640648,108.0727 89.8289376,118.458633 C91.0772051,122.198802 85.1115474,124.471064 84.305751,121.906912 C80.3511323,109.321236 78.6216171,87.8652738 79.068869,68.9716508 C79.5017788,49.6157188 80.0239263,36.16344 82.869446,19 L89.1145033,20.3264938" id="Fill-66" fill="#2C1C1C"></path>
                <path d="M33.4316088,49.0065031 C34.0393923,52.0309781 34.3779722,55.3887171 34.3779722,58.924071 C34.3779722,72.2213444 29.5921954,83 23.6886896,83 C17.7857769,83 13,72.2213444 13,58.924071 C13,43.3334933 22.6741358,49.0065031 33.4316088,49.0065031 Z M82.5683911,49.0065031 C81.9606076,52.0309781 81.6220276,55.3887171 81.6220276,58.924071 C81.6220276,72.2213444 86.4078047,83 92.3113102,83 C98.2142229,83 103,72.2213444 103,58.924071 C103,43.3334933 93.3258642,49.0065031 82.5683911,49.0065031 L82.5683911,49.0065031 Z" id="Fill-67" fill="#E4874C"></path>
                <path d="M83.2232505,49.1161346 C80.5886878,65.8492183 77.9325393,86.4244494 77.9617085,105.013986 C77.9902946,123.049623 80.5023469,139.125177 88,147.55098 L82.8317997,152.352621 C73.9818621,142.408066 71.0194373,124.649972 70.9885177,105.013986 C70.9581821,85.931897 73.6563338,64.9945479 76.3317333,48 L83.2232505,49.1161346 Z M32.0902124,60.266759 C35.0112169,76.4703643 38.0092281,96.3779394 38.2431652,114.299224 C38.4852696,132.851238 35.708361,149.372888 26.8129193,158 L22,152.835049 C29.2432977,145.810072 31.4887434,131.141301 31.2699743,114.383202 C31.0430379,96.9955657 28.0969479,77.4751232 25.2261144,61.5508501 L32.0902124,60.266759 L32.0902124,60.266759 Z" id="Fill-68" fill="#2C1C1C"></path>
                <path d="M33.3190752,58 C35.7443792,81.1837332 32.2450978,139.886958 13.7557569,156 L9,150.691051 C24.945173,136.795162 28.2799659,78.8829713 26.1716324,58.7228422 L33.3190752,58" id="Fill-69" fill="#2C1C1C"></path>
                <path d="M109.922581,164.742827 C109.922581,139.480095 86.9000743,119 58.5000318,119 C30.0993953,119 7.07688927,139.480095 7.07688927,164.742827 C7.07688927,166.70794 6.95580566,189.308843 7.01753457,191.479544 C7.19856645,197.816718 8.94596919,204 19.8535848,204 L97.1156143,204 C108.055281,204 109.802684,197.828139 109.982529,191.485555 C110.044258,189.315455 109.922581,166.712749 109.922581,164.742827" id="Fill-70" fill="#E4874C"></path>
                <path d="M79,72 C78.3096968,88.8652792 77.6187978,105.729962 76.9284946,122.59524 C76.6226867,130.056893 68.2991086,138.125673 58.4566255,137.998516 C48.8454353,137.873747 39.349296,129.661692 39.0601794,122.555243 C38.3734529,105.703694 37.6867264,88.8515488 37,72 C51.0003977,72 65.0001986,72 79,72" id="Fill-71" fill="#E4874C"></path>
                <path d="M94.4146344,21 C96.7181275,29.0332697 98,37.9517662 98,47.3433297 C98,54.3021458 97.3208781,61.0019577 96.0513427,67.2724615 C93.7478497,78.6526808 91.1611933,90.927588 85.4996881,98.488973 C71.6011838,117.051532 43.4164407,116.137922 29.7347148,97.8964566 C24.1930547,90.5077409 21.457767,79.1393483 19.1155007,68.0749014 C17.7396321,61.5737776 17,54.5995867 17,47.3433297 C17,37.9517662 18.2830473,29.0332697 20.5859528,21 L94.4146344,21" id="Fill-72" fill="#E5915A"></path>
                <path d="M91.2092268,130 C85.7474061,147.096247 73.1594584,159.063799 58.5000318,159.063799 C43.8406048,159.063799 31.2520639,147.096247 25.7902432,130 C14.3626802,138.32764 7.07688927,150.927702 7.07688927,165.032657 C7.07688927,166.982099 6.95580566,189.417679 7.01753457,191.571193 C7.19856645,197.862274 8.94596919,204 19.8535848,204 L97.1156143,204 C108.055281,204 109.802684,197.873611 109.982529,191.578354 C110.044258,189.424242 109.922581,166.987469 109.922581,165.032657 C109.922581,150.927702 102.636196,138.328237 91.2092268,130 Z" id="Fill-73" fill="#136E75"></path>
                <path d="M90.920257,130 C85.5902225,147.752492 73.306005,160.179422 59.0002896,160.179422 C44.6945744,160.179422 32.4097774,147.752492 27.0797428,130 C26.0157053,130.825323 24.988159,131.69154 24,132.594933 C29.9880349,151.693841 43.4063765,165 59.0002896,165 C74.5942025,165 88.0119651,151.693841 94,132.595553 C93.0124203,131.69154 91.984874,130.825323 90.920257,130 Z" id="Fill-74" fill="#EDF6F5"></path>
                <path d="M57.3920806,116 C42.0496687,114.457524 31.263629,106.257147 23.7275393,93.068861 C20.4119701,87.2661866 21.0800949,78.5870043 21.0150721,78.3945017 C20.8713059,77.965355 22.4539265,86.1099433 26.1214544,91.4528175 C32.7496102,101.110454 38.3654377,105.969619 48.6682799,107.24725 C51.946267,107.6531 52.9508404,106.192776 53.9971713,102.695231 C54.5030375,101.00562 55.5284899,101.10555 57.4481553,100.992745 C59.3672246,101.10555 60.2817199,101.00562 60.7875861,102.695231 C61.8339175,106.192776 62.8384904,107.6531 66.1158814,107.24725 C76.4193199,105.969619 81.8108482,100.765911 88.4396011,91.1082745 C92.1071288,85.764787 94.1371542,76.5859552 93.9927918,77.0144887 C93.9283654,77.207605 94.3727875,87.2661866 91.0572185,93.068861 C83.5211287,106.257147 72.7350892,114.457524 57.3920806,116" id="Fill-75" fill="#413333"></path>
                <path d="M26.9811567,45.3928648 L26.9846896,48.0451071 C27.0459259,82.2787463 27.6765432,129.78196 8.20807555,144.709186 C6.02535081,146.382967 2.27285434,140.349712 4.09817039,138.876045 C17.2563438,128.256323 19.5232686,95.6110429 19.8865654,66.1801131 C17.9670395,86.8676037 16.4702803,110.44329 6.14429078,128.761086 C5.19807052,130.439644 -0.923215167,126.940357 0.11898141,125.028234 C10.2212225,106.492405 11.401201,83.7422585 13.0852023,62.8916908 C13.9560547,52.114268 14.0337778,41.2950309 13.0057127,31.1525933 C31.1128479,29.2721295 10.4897206,45.3928648 26.9811567,45.3928648" id="Fill-76" fill="#413333"></path>
                <path d="M98.9099784,30 C99.9047649,42.6515153 101.367518,58.5599386 103.825629,74.2393697 C106.158606,89.1238542 109.38009,103.734853 113.92891,114.958432 C114.707711,116.879354 108.856128,120.707556 107.681926,117.820239 C102.858269,105.964857 99.4870803,90.7641734 97.073538,75.3665327 C96.6432827,72.6227806 96.2433111,69.8713164 95.8707664,67.129344 C95.9867582,75.3428032 96.3844442,83.616773 97.2215274,91.4778456 C99.044826,108.477838 103.10568,123.444783 110.305738,131.354501 C111.950765,133.160929 107.886483,139.037601 105.367233,136.271898 C96.935262,127.013144 92.401299,110.614701 90.4322962,92.246096 C88.4198683,73.3536568 88.8718361,52.3249473 89.7117764,35.2015608 L92.4864361,35.3427529 C92.3510168,33.7196381 92.2235976,32.137457 92.1030346,30.6021424 L98.9099784,30" id="Fill-77" fill="#413333"></path>
                <path d="M11.568734,67 C-7.12868185,62.3076333 5.629333,30.3485858 15.6312631,18.4893923 C30.4111139,0.966976929 60.4204393,-4.21290071 79.3688906,3.42834144 C97.1387724,10.5939778 104.026922,27.7896001 99.7864289,48.0864821 C69.0811573,39.4720039 37.7924947,54.5009109 11.568734,67 Z" id="Fill-78" fill="#000000"></path>
                <path d="M11.5679867,67 C2.18055038,64.6579558 0.723228962,55.4844568 2.86413017,45.4375731 C36.3159325,21.2467078 58.0956098,11.4347384 97.3655013,20.1064553 C101.179995,27.9781612 102.000291,37.6682354 99.7869061,48.1985578 C69.0812086,39.6351264 37.7921113,54.5749772 11.5679867,67 Z" id="Fill-79" fill="#EDF6F5"></path>
                <path d="M13.4382547,68 C9.92567997,67.0919238 7.52140756,65.1947258 6,62.6295181 C40.594022,36.5310756 62.5334503,25.9436068 102.978223,35.4185441 C103.100974,39.5776437 102.704983,43.9590041 101.785529,48.4914035 C71.0351559,39.6058868 39.7005344,55.1076508 13.4382547,68 Z" id="Fill-80" fill="#17A1AC"></path>
                <path d="M109.935872,105.02561 C110.338315,104.935521 110.758832,105.084339 110.900409,105.452677 C111.584201,107.239631 112.268594,109.026584 112.952988,110.813538 C113.094566,111.182446 112.908406,111.650567 112.501746,111.726401 C110.071426,112.177416 107.979085,112.96997 106.059047,113.937 C105.693354,114.12117 105.235485,113.878272 105.09451,113.509934 C104.410116,111.72298 103.725723,109.936026 103.041329,108.148503 C102.900353,107.780164 103.13712,107.437484 103.492571,107.23621 C105.53792,106.077028 107.729064,105.518818 109.935872,105.02561 Z" id="Fill-82" fill="#EDF6F5"></path>
                <path d="M21.4719691,117.697883 C21.8325634,117.847233 22.0750223,118.210712 21.9788263,118.610179 C21.5141603,120.547534 21.0494943,122.484289 20.5842658,124.421044 C20.4886324,124.820511 20.0909098,125.107216 19.7286279,124.961464 C17.7968326,124.183523 15.8397225,123.444569 13.5298939,123.270027 C13.1439848,123.241237 12.9268407,122.757198 13.0224741,122.357731 C13.4877027,120.420976 13.9523686,118.484221 14.4170346,116.546866 C14.5132306,116.147399 14.8884512,115.962061 15.2726725,116.006446 C17.4975562,116.261361 19.5289228,116.893551 21.4719691,117.697883 Z" id="Fill-83" fill="#17A1AC"></path>
                <path d="M14.4356426,108.821432 C14.8283662,108.977306 15.0872912,109.341803 14.9726952,109.734155 C14.4176788,111.637244 13.8626626,113.540332 13.3076463,115.442828 C13.1930504,115.83518 12.7489134,116.10959 12.3537121,115.957272 C10.243907,115.144711 8.10622704,114.370081 5.56653209,114.145456 C5.14283661,114.107525 4.9148835,113.625085 5.02947951,113.232139 C5.58449575,111.329051 6.13951204,109.426556 6.69452832,107.52406 C6.80912428,107.131115 7.22600594,106.956867 7.64846251,107.009023 C10.0915253,107.311881 12.3140681,107.9822 14.4356426,108.821432 Z" id="Fill-84" fill="#EDF6F5"></path>
            </g>
            <g id="work" transform="translate(37.000000, 6.000000)">
                <path d="M18.13282,41.3309113 C14.313693,40.2202038 10.4945659,39.1101019 6.67605812,38 C1.31491287,57.8152883 -9.30209936,134.967672 27.1124443,133.990806 C33.8211524,131.265516 39.2912918,133.082376 46,130.357085 C40.6747732,105.376462 19.3212268,67.0576585 18.13282,41.3309113" id="Fill-162" fill="#2A2A2A"></path>
                <path d="M84.2570227,41.6322546 C88.0104013,40.5221805 92.0680909,39.1100742 95.8208607,38 C100.86452,64.7501235 100.104959,84.5486653 92.1167812,109.977474 C88.9768947,119.971167 78.6059575,127.32102 73.9104304,132.12085 C67.3172166,129.397114 58.5938225,136.055137 52,133.3314 C57.2341584,108.365021 83.0890749,67.3443315 84.2570227,41.6322546" id="Fill-163" fill="#2A2A2A"></path>
                <path d="M70.0498161,74 C71.2072325,80.5272551 72.4103516,87.9047398 70.6647304,95.4032551 C69.1589026,101.869694 68.1528406,113.288176 68.056686,120.284502 C88.3334306,126.42518 102.922809,143.532731 102.922809,163.6769 C102.922809,165.649528 103.043893,188.290795 102.982758,190.463936 C102.802913,196.817172 101.054918,203 90.1152575,203 L12.8538707,203 C1.94566849,203 0.198266842,196.805731 0.0178286271,190.457313 C-0.0444937775,188.284171 0.0765897608,165.644711 0.0765897608,163.6769 C0.0765897608,143.577289 14.6018659,126.502255 34.8085716,120.326652 C34.6851138,113.333336 34.0565477,101.686039 32.3346687,95.4032551 C30.2922742,87.9541155 31.7915734,80.5272551 32.9489895,74 L70.0498161,74" id="Fill-164" fill="#F5A479"></path>
                <path d="M75.9014908,121 C74.7424415,121 73.8029822,121.926472 73.8029822,123.0695 C73.8029822,124.211931 74.7424415,125.139 75.9014908,125.139 C77.0605406,125.139 78,124.211931 78,123.0695 C78,121.926472 77.0605406,121 75.9014908,121 Z M41.2485678,146.713941 C42.4076174,146.713941 43.3476817,147.64101 43.3476817,148.783441 C43.3476817,149.926469 42.4076174,150.852941 41.2485678,150.852941 C40.090123,150.852941 39.1506636,149.926469 39.1506636,148.783441 C39.1506636,147.64101 40.090123,146.713941 41.2485678,146.713941 Z M36.942662,140.614016 C38.1011067,140.614016 39.0405661,141.54049 39.0405661,142.683516 C39.0405661,143.826544 38.1011067,144.753016 36.942662,144.753016 C35.7836124,144.753016 34.844153,143.826544 34.844153,142.683516 C34.844153,141.54049 35.7836124,140.614016 36.942662,140.614016 Z M33.3088356,133.746307 C34.4672803,133.746307 35.4073447,134.672779 35.4073447,135.815807 C35.4073447,136.958834 34.4672803,137.885307 33.3088356,137.885307 C32.149786,137.885307 31.2103266,136.958834 31.2103266,135.815807 C31.2103266,134.672779 32.149786,133.746307 33.3088356,133.746307 Z M30.690085,127.279492 C31.8491347,127.279492 32.7885941,128.205965 32.7885941,129.348991 C32.7885941,130.49202 31.8491347,131.418492 30.690085,131.418492 C29.5310354,131.418492 28.591576,130.49202 28.591576,129.348991 C28.591576,128.205965 29.5310354,127.279492 30.690085,127.279492 Z M29.098509,121 C30.2569538,121 31.1970181,121.926472 31.1970181,123.0695 C31.1970181,124.211931 30.2569538,125.139 29.098509,125.139 C27.9394594,125.139 27,124.211931 27,123.0695 C27,121.926472 27.9394594,121 29.098509,121 Z M63.7514321,146.713941 C62.5923828,146.713941 61.6529234,147.64101 61.6529234,148.783441 C61.6529234,149.926469 62.5923828,150.852941 63.7514321,150.852941 C64.9104819,150.852941 65.8499413,149.926469 65.8499413,148.783441 C65.8499413,147.64101 64.9104819,146.713941 63.7514321,146.713941 Z M48.4514321,151.861 C47.2923828,151.861 46.3529234,152.788069 46.3529234,153.9305 C46.3529234,155.073528 47.2923828,156 48.4514321,156 C49.6104819,156 50.5499413,155.073528 50.5499413,153.9305 C50.5499413,152.788069 49.6104819,151.861 48.4514321,151.861 Z M56.6114321,150.831588 C55.4523828,150.831588 54.5129234,151.758657 54.5129234,152.901088 C54.5129234,154.044116 55.4523828,154.970588 56.6114321,154.970588 C57.7704819,154.970588 58.7099413,154.044116 58.7099413,152.901088 C58.7099413,151.758657 57.7704819,150.831588 56.6114321,150.831588 Z M68.057943,140.614016 C66.8988932,140.614016 65.9594338,141.54049 65.9594338,142.683516 C65.9594338,143.826544 66.8988932,144.753016 68.057943,144.753016 C69.2169923,144.753016 70.1558469,143.826544 70.1558469,142.683516 C70.1558469,141.54049 69.2169923,140.614016 68.057943,140.614016 Z M71.6911642,133.746307 C70.5327197,133.746307 69.5926555,134.672779 69.5926555,135.815807 C69.5926555,136.958834 70.5327197,137.885307 71.6911642,137.885307 C72.850214,137.885307 73.7896734,136.958834 73.7896734,135.815807 C73.7896734,134.672779 72.850214,133.746307 71.6911642,133.746307 Z M74.309915,127.279492 C73.1508651,127.279492 72.2114058,128.205965 72.2114058,129.348991 C72.2114058,130.49202 73.1508651,131.418492 74.309915,131.418492 C75.4689648,131.418492 76.4084242,130.49202 76.4084242,129.348991 C76.4084242,128.205965 75.4689648,127.279492 74.309915,127.279492 L74.309915,127.279492 Z" id="Fill-165" fill="#5F5F5F"></path>
                <path d="M102.938381,163.949426 C103.095466,166.016809 102.909928,189.018676 102.84828,191.232634 C102.669261,197.70279 100.923539,204 89.9981009,204 L12.8371597,204 C1.94313896,204 0.198009078,197.691138 0.0178054507,191.225887 C-0.044435933,189.011929 0.0764901812,165.953641 0.0764901812,163.949426 C0.0764901812,152.758815 4.41145447,142.488745 11.6385685,134.449806 C16.6564096,151.464784 32.1177624,163.876445 50.8251517,163.876445 C69.531948,163.876445 85.8468968,150.531364 90.5345625,133 C98.3194775,141.180608 102.054553,152.32093 102.938381,163.949426 Z" id="Fill-166" fill="#136E75"></path>
                <path d="M22,151.650344 C29.5113506,159.347896 40.0581468,164.136686 51.7387429,164.136686 C64.2327043,164.136686 75.4281563,158.657012 83,150 C80.7533629,164.505523 66.3912964,185.582039 52.3526601,189 C39.7155509,186.189676 24.9120633,166.17045 22,151.650344" id="Fill-167" fill="#3F3F3F"></path>
                <path d="M18.7175463,84 C12.9565516,82.6056939 7.54500319,74.2253503 6.1837452,64.0941167 C5.24985894,57.1467601 7.95776387,55.2538399 12.4445579,55 C13.043,65.5941897 15.2626541,75.4631222 18.7175463,84 Z M86.2824537,84 C92.0434483,82.6056939 97.4549965,74.2253503 98.8162547,64.0941167 C99.7501413,57.1467601 97.042236,55.2538399 92.5554421,55 C91.9569998,65.5941897 89.7373461,75.4631222 86.2824537,84 L86.2824537,84 Z" id="Fill-168" fill="#F49A6A"></path>
                <path d="M103,163.908978 C103,160.410211 102.63048,156.962324 101.814926,153.621584 C100.123913,146.693486 96.5473394,140.257429 91.8028929,135 C89.2850568,142.672148 87.6865715,151.699507 87.6865715,160.713698 C87.6865715,161.981514 87.6622531,183.549964 87.6432728,203 L90.0519735,203 C100.983952,203 102.730719,196.853662 102.909844,190.538522 C102.97153,188.377606 103,165.869964 103,163.908978 Z M11.3169412,135.478874 C4.28419971,143.271338 0.0765359719,153.154084 0.0765359719,163.908978 C0.0765359719,165.865176 -0.0444625307,188.371022 0.0178161069,190.531936 C0.198127609,196.842289 1.94430213,203 12.844844,203 L15.2837943,203 C15.2654072,183.549964 15.2410889,161.981514 15.2410889,160.713698 C15.2410889,151.699507 13.8341847,143.151022 11.3169412,135.478874 L11.3169412,135.478874 Z" id="Fill-169" fill="#15868F"></path>
                <path d="M84.6592206,24.3265797 C85.683343,30.0112306 94,38.0612942 94,44.2596367 C94,80.5669926 75.1959847,110 52,110 C34.3919117,110 19.3145824,93.0390591 13.0723684,68.9861351 C11.0911385,61.3531034 10,53.0057677 10,44.2596367 C10,34.6046667 13.8430497,25.4360319 16.231248,17.177452 C28.465281,17.4832352 82.3252439,11.3706094 84.6592206,24.3265797" id="Fill-170" fill="#FBBB91"></path>
                <path d="M9.40466029,54.1789696 C9.44007823,54.1120708 11.9685588,53.9904366 13.6362035,51.8885986 C17.3496844,47.2081169 13.8757248,44.9451137 20.4352472,36.9421954 C27.1616541,28.7361481 43.5367479,29.5334599 51.679272,22.4026584 C56.5525405,28.1036505 64.4369335,26.883052 71.1567368,28.9216401 C78.5867002,31.1755208 84.4126511,38.6310855 86.2639885,41.1014748 C90.4745214,46.7167151 88.4088753,50.211872 93.0738378,55 C95.8544461,47.2798811 96.491969,46.9070724 95.6617485,38.6189221 C93.3968012,16.0034862 77.9713888,-4.42375141 50.9036792,0.8344925 C28.0591086,-3.49568292 17.2002086,10.5536686 10.5014158,30.3611803 C9.68500233,32.7762261 8.00174972,36.3735558 7.56893052,38.9120603 C5.96251689,48.3301919 8.13861908,42.2983548 9.40466029,54.1789696" id="Fill-171" fill="#2A2A2A"></path>
                <path d="M66,24 C64.1444761,13.2114286 60.00318,4.38132404 51.0355074,4 C50.9223151,8.190662 51.0681019,13.984669 51.6417676,18.175331 C52.1917279,22.1903832 62.2385794,22.9574913 66,24" id="Fill-172" fill="#3B3B3B"></path>
                <path d="M32.2745937,25.9824701 C33.7684873,26.1366127 39.6646793,25.2719695 44.0332245,23.4770521 C47.7060777,21.9681413 50.6176078,20.3225495 50.6394848,18.9202138 C50.6976154,15.0889293 51.3464278,9.03100783 50.7488703,5.29064322 C50.0963076,1.20767281 48.8436871,0.453217441 48.2880086,5.73440508 C47.6967018,11.3624134 45.3102223,16.8651809 38.1551592,21.0438884 C34.5204346,23.1663585 30.9738435,25.5477401 32.2745937,25.9824701" id="Fill-173" fill="#1F1F1F"></path>
                <path d="M16.1777328,129 C17.7676546,126.231516 25.0587665,123.791548 23.8695475,117.758742 C20.9800031,103.099935 6.45830521,80.4384516 4.61899475,72 C3.59341946,77.8538386 3.82599527,93.1028709 5.43833414,104.74129 C6.37368121,111.495484 7.960801,115.814613 9.55184379,119.552709 C11.5475124,124.240194 14.2341835,128.373613 16.1777328,129" id="Fill-174" fill="#3B3B3B"></path>
                <path d="M17,39.5589696 C13.0295627,46.7466338 13.9978632,66.3598843 14.4684121,75 C11.1010646,69.9731226 9.07938271,46.4925306 10.4169455,40.2060534 C13.1551582,45.8527242 14.2617874,33.9122989 17,39.5589696" id="Fill-175" fill="#2A2A2A"></path>
                <path d="M36.3040185,57 C43.6798089,57 48.7974728,61.1886721 49.7004846,64.3723442 C45.5927366,63.4797916 39.2770294,60.7710937 34.2895618,61.6080079 C31.8212102,62.0226584 28.2509693,63.4786205 30.9193929,65.9512958 C31.16366,66.1773621 31.4359968,66.3800021 31.7304312,66.5621437 C26.0573436,67.6737353 21,65.0013479 21,59.4715042 C22.8084124,60.4507353 25.725881,58.5889079 28.2706779,58.0190563 C30.7557519,57.4620895 32.3521477,57 36.3040185,57 Z M68.6959814,57 C61.3201912,57 56.2031247,61.1886721 55.2995158,64.3723442 C59.4072636,63.4797916 65.723568,60.7710937 70.7110353,61.6080079 C73.1793868,62.0226584 76.7490309,63.4786205 74.0812044,65.9512958 C73.7688531,66.2406142 73.4105152,66.4918642 73.0187319,66.70856 C78.8154462,68.0192769 84,64.786409 84,59.4715042 C82.1921849,60.4507353 79.2747162,58.5889079 76.7299194,58.0190563 C74.2448455,57.4620895 72.6484496,57 68.6959814,57 L68.6959814,57 Z" id="Fill-177" fill="#4D4D4D"></path>
            </g>
        </g>
    </g>
</svg>