<?xml version="1.0" encoding="UTF-8"?>
<svg width="512px" height="216px" viewBox="0 0 512 216" version="1.1" xmlns="http://www.w3.org/2000/svg" xmlns:xlink="http://www.w3.org/1999/xlink">
    <title>featured-image</title>
    <g id="Page-1" stroke="none" stroke-width="1" fill="none" fill-rule="evenodd">
        <g id="featured-image" fill-rule="nonzero">
            <rect id="background" fill-opacity="0.5" fill="#FFFFFF" x="0" y="0" width="512" height="216"></rect>
            <g id="work" transform="translate(205.000000, 6.000000)">
                <path d="M18.13282,41.3309113 C14.313693,40.2202038 10.4945659,39.1101019 6.67605812,38 C1.31491287,57.8152883 -9.30209936,134.967672 27.1124443,133.990806 C33.8211524,131.265516 39.2912918,133.082376 46,130.357085 C40.6747732,105.376462 19.3212268,67.0576585 18.13282,41.3309113" id="Fill-162" fill="#2A2A2A"></path>
                <path d="M84.2570227,41.6322546 C88.0104013,40.5221805 92.0680909,39.1100742 95.8208607,38 C100.86452,64.7501235 100.104959,84.5486653 92.1167812,109.977474 C88.9768947,119.971167 78.6059575,127.32102 73.9104304,132.12085 C67.3172166,129.397114 58.5938225,136.055137 52,133.3314 C57.2341584,108.365021 83.0890749,67.3443315 84.2570227,41.6322546" id="Fill-163" fill="#2A2A2A"></path>
                <path d="M70.0498161,74 C71.2072325,80.5272551 72.4103516,87.9047398 70.6647304,95.4032551 C69.1589026,101.869694 68.1528406,113.288176 68.056686,120.284502 C88.3334306,126.42518 102.922809,143.532731 102.922809,163.6769 C102.922809,165.649528 103.043893,188.290795 102.982758,190.463936 C102.802913,196.817172 101.054918,203 90.1152575,203 L12.8538707,203 C1.94566849,203 0.198266842,196.805731 0.0178286271,190.457313 C-0.0444937775,188.284171 0.0765897608,165.644711 0.0765897608,163.6769 C0.0765897608,143.577289 14.6018659,126.502255 34.8085716,120.326652 C34.6851138,113.333336 34.0565477,101.686039 32.3346687,95.4032551 C30.2922742,87.9541155 31.7915734,80.5272551 32.9489895,74 L70.0498161,74" id="Fill-164" fill="#F5A479"></path>
                <path d="M75.9014908,121 C74.7424415,121 73.8029822,121.926472 73.8029822,123.0695 C73.8029822,124.211931 74.7424415,125.139 75.9014908,125.139 C77.0605406,125.139 78,124.211931 78,123.0695 C78,121.926472 77.0605406,121 75.9014908,121 Z M41.2485678,146.713941 C42.4076174,146.713941 43.3476817,147.64101 43.3476817,148.783441 C43.3476817,149.926469 42.4076174,150.852941 41.2485678,150.852941 C40.090123,150.852941 39.1506636,149.926469 39.1506636,148.783441 C39.1506636,147.64101 40.090123,146.713941 41.2485678,146.713941 Z M36.942662,140.614016 C38.1011067,140.614016 39.0405661,141.54049 39.0405661,142.683516 C39.0405661,143.826544 38.1011067,144.753016 36.942662,144.753016 C35.7836124,144.753016 34.844153,143.826544 34.844153,142.683516 C34.844153,141.54049 35.7836124,140.614016 36.942662,140.614016 Z M33.3088356,133.746307 C34.4672803,133.746307 35.4073447,134.672779 35.4073447,135.815807 C35.4073447,136.958834 34.4672803,137.885307 33.3088356,137.885307 C32.149786,137.885307 31.2103266,136.958834 31.2103266,135.815807 C31.2103266,134.672779 32.149786,133.746307 33.3088356,133.746307 Z M30.690085,127.279492 C31.8491347,127.279492 32.7885941,128.205965 32.7885941,129.348991 C32.7885941,130.49202 31.8491347,131.418492 30.690085,131.418492 C29.5310354,131.418492 28.591576,130.49202 28.591576,129.348991 C28.591576,128.205965 29.5310354,127.279492 30.690085,127.279492 Z M29.098509,121 C30.2569538,121 31.1970181,121.926472 31.1970181,123.0695 C31.1970181,124.211931 30.2569538,125.139 29.098509,125.139 C27.9394594,125.139 27,124.211931 27,123.0695 C27,121.926472 27.9394594,121 29.098509,121 Z M63.7514321,146.713941 C62.5923828,146.713941 61.6529234,147.64101 61.6529234,148.783441 C61.6529234,149.926469 62.5923828,150.852941 63.7514321,150.852941 C64.9104819,150.852941 65.8499413,149.926469 65.8499413,148.783441 C65.8499413,147.64101 64.9104819,146.713941 63.7514321,146.713941 Z M48.4514321,151.861 C47.2923828,151.861 46.3529234,152.788069 46.3529234,153.9305 C46.3529234,155.073528 47.2923828,156 48.4514321,156 C49.6104819,156 50.5499413,155.073528 50.5499413,153.9305 C50.5499413,152.788069 49.6104819,151.861 48.4514321,151.861 Z M56.6114321,150.831588 C55.4523828,150.831588 54.5129234,151.758657 54.5129234,152.901088 C54.5129234,154.044116 55.4523828,154.970588 56.6114321,154.970588 C57.7704819,154.970588 58.7099413,154.044116 58.7099413,152.901088 C58.7099413,151.758657 57.7704819,150.831588 56.6114321,150.831588 Z M68.057943,140.614016 C66.8988932,140.614016 65.9594338,141.54049 65.9594338,142.683516 C65.9594338,143.826544 66.8988932,144.753016 68.057943,144.753016 C69.2169923,144.753016 70.1558469,143.826544 70.1558469,142.683516 C70.1558469,141.54049 69.2169923,140.614016 68.057943,140.614016 Z M71.6911642,133.746307 C70.5327197,133.746307 69.5926555,134.672779 69.5926555,135.815807 C69.5926555,136.958834 70.5327197,137.885307 71.6911642,137.885307 C72.850214,137.885307 73.7896734,136.958834 73.7896734,135.815807 C73.7896734,134.672779 72.850214,133.746307 71.6911642,133.746307 Z M74.309915,127.279492 C73.1508651,127.279492 72.2114058,128.205965 72.2114058,129.348991 C72.2114058,130.49202 73.1508651,131.418492 74.309915,131.418492 C75.4689648,131.418492 76.4084242,130.49202 76.4084242,129.348991 C76.4084242,128.205965 75.4689648,127.279492 74.309915,127.279492 L74.309915,127.279492 Z" id="Fill-165" fill="#5F5F5F"></path>
                <path d="M102.938381,163.949426 C103.095466,166.016809 102.909928,189.018676 102.84828,191.232634 C102.669261,197.70279 100.923539,204 89.9981009,204 L12.8371597,204 C1.94313896,204 0.198009078,197.691138 0.0178054507,191.225887 C-0.044435933,189.011929 0.0764901812,165.953641 0.0764901812,163.949426 C0.0764901812,152.758815 4.41145447,142.488745 11.6385685,134.449806 C16.6564096,151.464784 32.1177624,163.876445 50.8251517,163.876445 C69.531948,163.876445 85.8468968,150.531364 90.5345625,133 C98.3194775,141.180608 102.054553,152.32093 102.938381,163.949426 Z" id="Fill-166" fill="#136E75"></path>
                <path d="M22,151.650344 C29.5113506,159.347896 40.0581468,164.136686 51.7387429,164.136686 C64.2327043,164.136686 75.4281563,158.657012 83,150 C80.7533629,164.505523 66.3912964,185.582039 52.3526601,189 C39.7155509,186.189676 24.9120633,166.17045 22,151.650344" id="Fill-167" fill="#3F3F3F"></path>
                <path d="M18.7175463,84 C12.9565516,82.6056939 7.54500319,74.2253503 6.1837452,64.0941167 C5.24985894,57.1467601 7.95776387,55.2538399 12.4445579,55 C13.043,65.5941897 15.2626541,75.4631222 18.7175463,84 Z M86.2824537,84 C92.0434483,82.6056939 97.4549965,74.2253503 98.8162547,64.0941167 C99.7501413,57.1467601 97.042236,55.2538399 92.5554421,55 C91.9569998,65.5941897 89.7373461,75.4631222 86.2824537,84 L86.2824537,84 Z" id="Fill-168" fill="#F49A6A"></path>
                <path d="M103,163.908978 C103,160.410211 102.63048,156.962324 101.814926,153.621584 C100.123913,146.693486 96.5473394,140.257429 91.8028929,135 C89.2850568,142.672148 87.6865715,151.699507 87.6865715,160.713698 C87.6865715,161.981514 87.6622531,183.549964 87.6432728,203 L90.0519735,203 C100.983952,203 102.730719,196.853662 102.909844,190.538522 C102.97153,188.377606 103,165.869964 103,163.908978 Z M11.3169412,135.478874 C4.28419971,143.271338 0.0765359719,153.154084 0.0765359719,163.908978 C0.0765359719,165.865176 -0.0444625307,188.371022 0.0178161069,190.531936 C0.198127609,196.842289 1.94430213,203 12.844844,203 L15.2837943,203 C15.2654072,183.549964 15.2410889,161.981514 15.2410889,160.713698 C15.2410889,151.699507 13.8341847,143.151022 11.3169412,135.478874 L11.3169412,135.478874 Z" id="Fill-169" fill="#15868F"></path>
                <path d="M84.6592206,24.3265797 C85.683343,30.0112306 94,38.0612942 94,44.2596367 C94,80.5669926 75.1959847,110 52,110 C34.3919117,110 19.3145824,93.0390591 13.0723684,68.9861351 C11.0911385,61.3531034 10,53.0057677 10,44.2596367 C10,34.6046667 13.8430497,25.4360319 16.231248,17.177452 C28.465281,17.4832352 82.3252439,11.3706094 84.6592206,24.3265797" id="Fill-170" fill="#FBBB91"></path>
                <path d="M9.40466029,54.1789696 C9.44007823,54.1120708 11.9685588,53.9904366 13.6362035,51.8885986 C17.3496844,47.2081169 13.8757248,44.9451137 20.4352472,36.9421954 C27.1616541,28.7361481 43.5367479,29.5334599 51.679272,22.4026584 C56.5525405,28.1036505 64.4369335,26.883052 71.1567368,28.9216401 C78.5867002,31.1755208 84.4126511,38.6310855 86.2639885,41.1014748 C90.4745214,46.7167151 88.4088753,50.211872 93.0738378,55 C95.8544461,47.2798811 96.491969,46.9070724 95.6617485,38.6189221 C93.3968012,16.0034862 77.9713888,-4.42375141 50.9036792,0.8344925 C28.0591086,-3.49568292 17.2002086,10.5536686 10.5014158,30.3611803 C9.68500233,32.7762261 8.00174972,36.3735558 7.56893052,38.9120603 C5.96251689,48.3301919 8.13861908,42.2983548 9.40466029,54.1789696" id="Fill-171" fill="#2A2A2A"></path>
                <path d="M66,24 C64.1444761,13.2114286 60.00318,4.38132404 51.0355074,4 C50.9223151,8.190662 51.0681019,13.984669 51.6417676,18.175331 C52.1917279,22.1903832 62.2385794,22.9574913 66,24" id="Fill-172" fill="#3B3B3B"></path>
                <path d="M32.2745937,25.9824701 C33.7684873,26.1366127 39.6646793,25.2719695 44.0332245,23.4770521 C47.7060777,21.9681413 50.6176078,20.3225495 50.6394848,18.9202138 C50.6976154,15.0889293 51.3464278,9.03100783 50.7488703,5.29064322 C50.0963076,1.20767281 48.8436871,0.453217441 48.2880086,5.73440508 C47.6967018,11.3624134 45.3102223,16.8651809 38.1551592,21.0438884 C34.5204346,23.1663585 30.9738435,25.5477401 32.2745937,25.9824701" id="Fill-173" fill="#1F1F1F"></path>
                <path d="M16.1777328,129 C17.7676546,126.231516 25.0587665,123.791548 23.8695475,117.758742 C20.9800031,103.099935 6.45830521,80.4384516 4.61899475,72 C3.59341946,77.8538386 3.82599527,93.1028709 5.43833414,104.74129 C6.37368121,111.495484 7.960801,115.814613 9.55184379,119.552709 C11.5475124,124.240194 14.2341835,128.373613 16.1777328,129" id="Fill-174" fill="#3B3B3B"></path>
                <path d="M17,39.5589696 C13.0295627,46.7466338 13.9978632,66.3598843 14.4684121,75 C11.1010646,69.9731226 9.07938271,46.4925306 10.4169455,40.2060534 C13.1551582,45.8527242 14.2617874,33.9122989 17,39.5589696" id="Fill-175" fill="#2A2A2A"></path>
                <path d="M36.3040185,57 C43.6798089,57 48.7974728,61.1886721 49.7004846,64.3723442 C45.5927366,63.4797916 39.2770294,60.7710937 34.2895618,61.6080079 C31.8212102,62.0226584 28.2509693,63.4786205 30.9193929,65.9512958 C31.16366,66.1773621 31.4359968,66.3800021 31.7304312,66.5621437 C26.0573436,67.6737353 21,65.0013479 21,59.4715042 C22.8084124,60.4507353 25.725881,58.5889079 28.2706779,58.0190563 C30.7557519,57.4620895 32.3521477,57 36.3040185,57 Z M68.6959814,57 C61.3201912,57 56.2031247,61.1886721 55.2995158,64.3723442 C59.4072636,63.4797916 65.723568,60.7710937 70.7110353,61.6080079 C73.1793868,62.0226584 76.7490309,63.4786205 74.0812044,65.9512958 C73.7688531,66.2406142 73.4105152,66.4918642 73.0187319,66.70856 C78.8154462,68.0192769 84,64.786409 84,59.4715042 C82.1921849,60.4507353 79.2747162,58.5889079 76.7299194,58.0190563 C74.2448455,57.4620895 72.6484496,57 68.6959814,57 L68.6959814,57 Z" id="Fill-177" fill="#4D4D4D"></path>
            </g>
        </g>
    </g>
</svg>