<?xml version="1.0" encoding="UTF-8"?>
<svg width="512px" height="512px" viewBox="0 0 512 512" version="1.1" xmlns="http://www.w3.org/2000/svg" xmlns:xlink="http://www.w3.org/1999/xlink">

    <g stroke="none" stroke-width="1" fill="none" fill-rule="evenodd">
        <path fill="#333" d="M384.333333,92.7 L307.7,92.7 C300,71.414 279.833333,56 256,56 C232.166667,56 212,71.414 204.3,92.7 L127.666667,92.7 C107.5,92.7 91,109.215 91,129.4 L91,386.3 C91,406.485 107.5,423 127.666667,423 L384.333333,423 C404.5,423 421,406.485 421,386.3 L421,129.4 C421,109.215 404.5,92.7 384.333333,92.7 Z M256.5,92 C266.675,92 275,100.325 275,110.5 C275,120.675 266.675,129 256.5,129 C246.325,129 238,120.675 238,110.5 C238,100.325 246.325,92 256.5,92 Z M274.714286,350 L183.285714,350 C173.228571,350 165,341.675 165,331.5 C165,321.325 173.228571,313 183.285714,313 L274.714286,313 C284.771429,313 293,321.325 293,331.5 C293,341.675 284.771429,350 274.714286,350 Z M329.6,276 L182.4,276 C172.28,276 164,267.675 164,257.5 C164,247.325 172.28,239 182.4,239 L329.6,239 C339.72,239 348,247.325 348,257.5 C348,267.675 339.72,276 329.6,276 Z M329.6,203 L182.4,203 C172.28,203 164,194.675 164,184.5 C164,174.325 172.28,166 182.4,166 L329.6,166 C339.72,166 348,174.325 348,184.5 C348,194.675 339.72,203 329.6,203 Z" fill-rule="nonzero"></path>
    </g>
</svg>